<svg xmlns="http://www.w3.org/2000/svg" version="1.1" xmlns:xlink="http://www.w3.org/1999/xlink" xmlns:svgjs="http://svgjs.dev/svgjs" width="1500" height="935" viewBox="0 0 1500 935"><g transform="matrix(1,0,0,1,-0.9090909090909918,0.3785425101214628)"><svg viewBox="0 0 396 247" data-background-color="#ffffff" preserveAspectRatio="xMidYMid meet" height="935" width="1500" xmlns="http://www.w3.org/2000/svg" xmlns:xlink="http://www.w3.org/1999/xlink"><g id="tight-bounds" transform="matrix(1,0,0,1,0.2400000000000091,-0.09999999999999432)"><svg viewBox="0 0 395.52 247.2" height="247.2" width="395.52"><g><svg></svg></g><g><svg viewBox="0 0 395.52 247.2" height="247.2" width="395.52"><g transform="matrix(1,0,0,1,75.54432,96.4286525700627)"><svg viewBox="0 0 244.43135999999998 54.34269485987461" height="54.34269485987461" width="244.43135999999998"><g><svg viewBox="0 0 335.4488847951005 74.57797717733675" height="54.34269485987461" width="244.43135999999998"><g transform="matrix(1,0,0,1,0,10.307086570818612)"><svg viewBox="0 0 244.43135999999998 53.963804035699525" height="53.963804035699525" width="244.43135999999998"><g id="textblocktransform"><svg viewBox="0 0 244.43135999999998 53.963804035699525" height="53.963804035699525" width="244.43135999999998" id="textblock"><g><svg viewBox="0 0 244.43135999999998 39.6653158287596" height="39.6653158287596" width="244.43135999999998"><g transform="matrix(1,0,0,1,0,0)"><svg width="244.43135999999998" viewBox="2.15 -33.6 273.27000000000004 44.35" height="39.6653158287596" data-palette-color="#4169e1"><path d="M2.25 0L2.25-0.5 2.5-0.5Q2.85-0.5 3.15-0.8 3.45-1.1 3.68-1.5 3.9-1.9 4-2.38 4.1-2.85 4.1-3.25L4.1-3.25 4.1-29.85Q4.1-30.2 4-30.65 3.9-31.1 3.68-31.53 3.45-31.95 3.13-32.23 2.8-32.5 2.4-32.5L2.4-32.5 2.15-32.5 2.15-33 10.35-33Q15-33 17.63-30.95 20.25-28.9 20.25-25.5L20.25-25.5Q20.25-24.05 19.75-22.9 19.25-21.75 18.48-20.85 17.7-19.95 16.8-19.33 15.9-18.7 15.1-18.3L15.1-18.3Q17.2-17.9 18.6-16.95 20-16 20.88-14.78 21.75-13.55 22.1-12.15 22.45-10.75 22.45-9.4L22.45-9.4Q22.45-6.8 21.5-5.03 20.55-3.25 18.98-2.13 17.4-1 15.38-0.5 13.35 0 11.2 0L11.2 0 2.25 0ZM19.05-8.55L19.05-9.1Q18.65-12.95 16.45-15.05 14.25-17.15 10.25-17.15L10.25-17.15 7.45-17.15 7.45-1.65 10.35-1.65Q14.4-1.65 16.73-3.48 19.05-5.3 19.05-8.55L19.05-8.55ZM17-24.7L17-25.05Q16.85-27.95 14.98-29.65 13.1-31.35 9.95-31.35L9.95-31.35 7.45-31.35 7.45-18.75 10.05-18.75Q12.15-18.75 13.48-19.3 14.8-19.85 15.6-20.73 16.4-21.6 16.7-22.65 17-23.7 17-24.7L17-24.7ZM45-18.3L34.7 7.15Q34 9.25 32.92 10 31.85 10.75 30.7 10.75L30.7 10.75Q29.95 10.75 29.37 10.55 28.8 10.35 28.37 10.08 27.95 9.8 27.7 9.55 27.45 9.3 27.4 9.15L27.4 9.15 29.05 5.1Q29.3 6 29.55 6.45L29.55 6.45Q29.8 6.95 30.25 7.35 30.7 7.75 31.35 7.75L31.35 7.75Q32.55 7.75 33.25 6L33.25 6 35.7-0.15 27.65-18.35Q27.4-18.95 26.82-19.73 26.25-20.5 25.25-20.5L25.25-20.5 25.25-21 31.85-21 31.85-20.5Q31.65-20.5 31.35-20.15 31.05-19.8 31.05-19.25L31.05-19.25Q31.05-18.8 31.25-18.45L31.25-18.45 37.4-4.3 43.3-18.75Q43.45-19.1 43.45-19.4L43.45-19.4Q43.45-19.9 43.12-20.2 42.8-20.5 42.45-20.5L42.45-20.5 42.45-21 47.3-21 47.3-20.5Q46.5-20.5 45.92-19.83 45.35-19.15 45-18.3L45-18.3ZM60.9-19.3L55.3-19.3 55.3-7.25Q55.3-5.95 55.35-4.9 55.4-3.85 55.6-3.15 55.8-2.45 56.2-2.08 56.6-1.7 57.3-1.7L57.3-1.7Q58.35-1.7 59.27-2.7 60.2-3.7 60.45-5.1L60.45-5.1 60.9-5.1 60.9-1.45Q60.45-1.45 60.15-1.15L60.15-1.15Q59.75-0.8 59.02-0.4 58.3 0 56.85 0L56.85 0Q55.05 0 54.05-0.7 53.05-1.4 52.6-2.55 52.15-3.7 52.07-5.1 52-6.5 52-7.95L52-7.95 52-19.3 49.2-19.3 49.2-21 52-21 52-25.45Q52-26.3 51.77-27.03 51.55-27.75 50.3-27.8L50.3-27.8 50.3-28.3 55.3-29.9 55.3-21 60.9-21 60.9-19.3ZM84.74-10.1L67.39-10.1Q67.59-8.35 68.24-6.78 68.89-5.2 69.97-4 71.04-2.8 72.59-2.08 74.14-1.35 76.19-1.35L76.19-1.35Q77.29-1.35 78.52-1.68 79.74-2 80.79-2.6 81.84-3.2 82.67-4.08 83.49-4.95 83.79-6.05L83.79-6.05 84.24-6.05 84.24-2.3Q83.94-2.3 83.57-2.1 83.19-1.9 82.69-1.6L82.69-1.6Q81.69-1 79.99-0.33 78.29 0.35 75.49 0.35L75.49 0.35Q73.24 0.35 71.22-0.3 69.19-0.95 67.64-2.3 66.09-3.65 65.17-5.75 64.24-7.85 64.24-10.75L64.24-10.75Q64.24-12.6 64.87-14.5 65.49-16.4 66.77-17.93 68.04-19.45 70.04-20.4 72.04-21.35 74.84-21.35L74.84-21.35Q77.34-21.35 79.22-20.5 81.09-19.65 82.32-18.15 83.54-16.65 84.14-14.6 84.74-12.55 84.74-10.1L84.74-10.1ZM74.64-19.7L74.64-19.7Q72.89-19.7 71.62-19 70.34-18.3 69.44-17.2 68.54-16.1 68.04-14.7 67.54-13.3 67.39-11.9L67.39-11.9 81.64-11.9Q81.59-13.35 81.12-14.75 80.64-16.15 79.79-17.25 78.94-18.35 77.64-19.03 76.34-19.7 74.64-19.7ZM101.89 0L101.89-0.5 102.14-0.5Q102.49-0.5 102.79-0.8 103.09-1.1 103.31-1.5 103.54-1.9 103.64-2.38 103.74-2.85 103.74-3.25L103.74-3.25 103.74-29.85Q103.74-30.2 103.64-30.65 103.54-31.1 103.31-31.53 103.09-31.95 102.76-32.23 102.44-32.5 102.04-32.5L102.04-32.5 101.79-32.5 101.79-33 109.99-33Q114.64-33 117.26-30.95 119.89-28.9 119.89-25.5L119.89-25.5Q119.89-24.05 119.39-22.9 118.89-21.75 118.11-20.85 117.34-19.95 116.44-19.33 115.54-18.7 114.74-18.3L114.74-18.3Q116.84-17.9 118.24-16.95 119.64-16 120.51-14.78 121.39-13.55 121.74-12.15 122.09-10.75 122.09-9.4L122.09-9.4Q122.09-6.8 121.14-5.03 120.19-3.25 118.61-2.13 117.04-1 115.01-0.5 112.99 0 110.84 0L110.84 0 101.89 0ZM118.69-8.55L118.69-9.1Q118.29-12.95 116.09-15.05 113.89-17.15 109.89-17.15L109.89-17.15 107.09-17.15 107.09-1.65 109.99-1.65Q114.04-1.65 116.36-3.48 118.69-5.3 118.69-8.55L118.69-8.55ZM116.64-24.7L116.64-25.05Q116.49-27.95 114.61-29.65 112.74-31.35 109.59-31.35L109.59-31.35 107.09-31.35 107.09-18.75 109.69-18.75Q111.79-18.75 113.11-19.3 114.44-19.85 115.24-20.73 116.04-21.6 116.34-22.65 116.64-23.7 116.64-24.7L116.64-24.7ZM140.04-20.4L138.54-17.35Q137.94-18.35 137.29-18.6 136.64-18.85 135.79-18.85L135.79-18.85Q135.24-18.85 134.61-18.6 133.99-18.35 133.39-17.95 132.79-17.55 132.21-17.07 131.64-16.6 131.24-16.2L131.24-16.2 131.24-3.2Q131.24-2.8 131.34-2.35 131.44-1.9 131.66-1.48 131.89-1.05 132.16-0.78 132.44-0.5 132.84-0.5L132.84-0.5 132.84 0 126.34 0 126.34-0.5Q126.69-0.5 126.99-0.78 127.29-1.05 127.51-1.48 127.74-1.9 127.84-2.35 127.94-2.8 127.94-3.2L127.94-3.2 127.94-17.15Q127.94-17.85 127.49-18.55 127.04-19.25 126.19-19.45L126.19-19.45 126.19-19.85 131.24-21.35 131.24-18.35Q131.69-18.9 132.19-19.43 132.69-19.95 133.31-20.38 133.94-20.8 134.69-21.08 135.44-21.35 136.44-21.35L136.44-21.35Q137.14-21.35 138.24-21.05 139.34-20.75 140.04-20.4L140.04-20.4ZM161.23 0L156.38 0 156.38-2.55 156.13-2.3Q154.88-1.05 153.26-0.35 151.63 0.35 149.33 0.35L149.33 0.35Q147.58 0.35 146.33-0.05 145.08-0.45 144.28-1.18 143.48-1.9 143.11-2.85 142.73-3.8 142.73-4.85L142.73-4.85Q142.73-6.55 143.66-7.85 144.58-9.15 146.33-10.15 148.08-11.15 150.61-11.98 153.13-12.8 156.38-13.6L156.38-13.6Q156.28-15.55 155.58-16.75 154.88-17.95 153.93-18.63 152.98-19.3 151.93-19.53 150.88-19.75 150.13-19.75L150.13-19.75Q148.83-19.75 147.86-19.35 146.88-18.95 146.16-18.32 145.43-17.7 144.93-16.98 144.43-16.25 144.13-15.6L144.13-15.6 143.68-15.6 143.68-19.25Q144.08-19.3 144.43-19.5 144.78-19.7 145.28-19.9L145.28-19.9Q146.03-20.2 147.33-20.78 148.63-21.35 150.98-21.35L150.98-21.35Q153.73-21.35 155.43-20.65 157.13-19.95 158.06-18.8 158.98-17.65 159.28-16.18 159.58-14.7 159.58-13.15L159.58-13.15 159.58-3.25Q159.58-2.25 160.03-1.38 160.48-0.5 161.23-0.5L161.23-0.5 161.23 0ZM155.83-4.15L156.38-4.75 156.38-11.9 155.88-11.8Q154.68-11.5 152.96-11 151.23-10.5 149.68-9.7 148.13-8.9 147.03-7.8 145.93-6.7 145.93-5.25L145.93-5.25Q145.93-3.65 147.23-2.6 148.53-1.55 150.63-1.55L150.63-1.55Q152.28-1.55 153.53-2.27 154.78-3 155.83-4.15L155.83-4.15ZM173.23 0L166.73 0 166.73-0.5Q167.13-0.5 167.43-0.8 167.73-1.1 167.93-1.5 168.13-1.9 168.23-2.38 168.33-2.85 168.33-3.25L168.33-3.25 168.33-17.1Q168.33-17.95 168.08-18.73 167.83-19.5 166.63-19.55L166.63-19.55 166.63-20 171.63-21.6 171.63-3.25Q171.63-2.85 171.73-2.38 171.83-1.9 172.03-1.5 172.23-1.1 172.53-0.8 172.83-0.5 173.23-0.5L173.23-0.5 173.23 0ZM166.98-26.4L166.98-26.4Q166.98-27.4 167.66-28.1 168.33-28.8 169.33-28.8L169.33-28.8Q170.33-28.8 171.03-28.1 171.73-27.4 171.73-26.4L171.73-26.4Q171.73-25.4 171.03-24.75 170.33-24.1 169.33-24.1L169.33-24.1Q168.33-24.1 167.66-24.75 166.98-25.4 166.98-26.4ZM198.68-12.9L198.68-3.25Q198.68-2.85 198.78-2.38 198.88-1.9 199.1-1.5 199.33-1.1 199.6-0.8 199.88-0.5 200.28-0.5L200.28-0.5 200.28 0 193.83 0 193.83-0.5Q194.18-0.5 194.48-0.8 194.78-1.1 195-1.5 195.23-1.9 195.33-2.38 195.43-2.85 195.43-3.25L195.43-3.25 195.43-12.55Q195.43-14.35 194.93-15.7 194.43-17.05 193.58-17.95 192.73-18.85 191.65-19.28 190.58-19.7 189.48-19.7L189.48-19.7Q188.38-19.7 187.3-19.25 186.23-18.8 185.4-18.07 184.58-17.35 184.05-16.38 183.53-15.4 183.53-14.35L183.53-14.35 183.53-3.25Q183.53-2.85 183.63-2.38 183.73-1.9 183.95-1.5 184.18-1.1 184.45-0.8 184.73-0.5 185.13-0.5L185.13-0.5 185.13 0 178.63 0 178.63-0.5Q178.98-0.5 179.28-0.8 179.58-1.1 179.8-1.5 180.03-1.9 180.13-2.38 180.23-2.85 180.23-3.25L180.23-3.25 180.23-17.05Q180.23-17.9 179.98-18.68 179.73-19.45 178.53-19.5L178.53-19.5 178.53-19.95 183.53-21.55 183.53-18.8Q183.88-19.2 184.43-19.68 184.98-20.15 185.75-20.58 186.53-21 187.55-21.28 188.58-21.55 189.98-21.55L189.98-21.55Q192.33-21.55 193.98-20.75 195.63-19.95 196.68-18.68 197.73-17.4 198.2-15.88 198.68-14.35 198.68-12.9L198.68-12.9ZM221.43-5.7L221.43-5.7Q221.43-4.4 220.78-3.3 220.13-2.2 219-1.38 217.88-0.55 216.38-0.08 214.88 0.4 213.13 0.4L213.13 0.4Q210.98 0.4 209.63-0.18 208.28-0.75 207.33-1.35L207.33-1.35Q206.68-1.75 206.13-2.02 205.58-2.3 204.93-2.3L204.93-2.3 204.93-6.1 205.43-6.1Q205.58-5.4 206.3-4.58 207.03-3.75 208.05-3.05 209.08-2.35 210.3-1.88 211.53-1.4 212.78-1.4L212.78-1.4Q213.68-1.4 214.63-1.6 215.58-1.8 216.35-2.25 217.13-2.7 217.65-3.38 218.18-4.05 218.18-5L218.18-5Q218.18-5.95 217.63-6.65 217.08-7.35 216.23-7.88 215.38-8.4 214.28-8.8 213.18-9.2 212.08-9.55L212.08-9.55Q210.78-9.95 209.45-10.45 208.13-10.95 207.08-11.63 206.03-12.3 205.38-13.28 204.73-14.25 204.73-15.6L204.73-15.6Q204.73-16.75 205.15-17.8 205.58-18.85 206.55-19.63 207.53-20.4 209.08-20.88 210.63-21.35 212.83-21.35L212.83-21.35Q214.78-21.35 215.85-21.03 216.93-20.7 217.63-20.35L217.63-20.35Q218.08-20.1 218.53-19.98 218.98-19.85 219.53-19.85L219.53-19.85 219.53-16.35 219.13-16.35Q218.23-18 216.38-18.85 214.53-19.7 212.58-19.7L212.58-19.7Q211.33-19.7 210.43-19.38 209.53-19.05 208.95-18.57 208.38-18.1 208.1-17.5 207.83-16.9 207.83-16.3L207.83-16.3Q207.83-15.45 208.3-14.85 208.78-14.25 209.6-13.8 210.43-13.35 211.45-12.95 212.48-12.55 213.63-12.2L213.63-12.2Q215.03-11.75 216.43-11.23 217.83-10.7 218.93-9.95 220.03-9.2 220.73-8.18 221.43-7.15 221.43-5.7ZM257.82 0L257.82-0.5 258.07-0.5Q259.27-0.5 259.27-1.6L259.27-1.6Q259.27-2 259.12-2.45L259.12-2.45 254.62-14.6 245.87-14.6 241.52-2.65Q241.37-2.25 241.37-1.9L241.37-1.9Q241.37-1.25 241.72-0.88 242.07-0.5 242.47-0.5L242.47-0.5 242.72-0.5 242.72 0 237.17 0 237.17-0.5 237.42-0.5Q238.07-0.5 238.7-1.28 239.32-2.05 239.72-3.1L239.72-3.1 251.17-33.6 262.37-3.4Q262.72-2.4 263.35-1.45 263.97-0.5 264.97-0.5L264.97-0.5 265.22-0.5 265.22 0 257.82 0ZM250.22-26.75L246.37-16.3 254.07-16.3 250.22-26.75ZM275.42 0L268.92 0 268.92-0.5Q269.32-0.5 269.62-0.8 269.92-1.1 270.12-1.5 270.32-1.9 270.42-2.38 270.52-2.85 270.52-3.25L270.52-3.25 270.52-17.1Q270.52-17.95 270.27-18.73 270.02-19.5 268.82-19.55L268.82-19.55 268.82-20 273.82-21.6 273.82-3.25Q273.82-2.85 273.92-2.38 274.02-1.9 274.22-1.5 274.42-1.1 274.72-0.8 275.02-0.5 275.42-0.5L275.42-0.5 275.42 0ZM269.17-26.4L269.17-26.4Q269.17-27.4 269.84-28.1 270.52-28.8 271.52-28.8L271.52-28.8Q272.52-28.8 273.22-28.1 273.92-27.4 273.92-26.4L273.92-26.4Q273.92-25.4 273.22-24.75 272.52-24.1 271.52-24.1L271.52-24.1Q270.52-24.1 269.84-24.75 269.17-25.4 269.17-26.4Z" opacity="1" transform="matrix(1,0,0,1,0,0)" fill="#4169e1" class="wordmark-text-0" data-fill-palette-color="primary" id="text-0"></path></svg></g></svg></g><g transform="matrix(1,0,0,1,100.925708544,49.02934492834986)"><svg viewBox="0 0 143.50565145599998 4.934459107349673" height="4.934459107349673" width="143.50565145599998"><g transform="matrix(1,0,0,1,0,0)"><svg width="143.50565145599998" viewBox="2.27 -40.43 1379.46 47.44" height="4.934459107349673" data-palette-color="#ffd700"><path d="M11.06-40.43L11.06 0 9.3 0 9.3-40.43 11.06-40.43ZM7.54-40.43L7.54 0 5.79 0 5.79-40.43 7.54-40.43ZM4.03-40.43L4.03 0 2.27 0 2.27-40.43 4.03-40.43ZM14.58-15.82L14.58-8.79 33.28-8.79 33.28-7.03 14.58-7.03 14.58-5.27 33.28-5.27 33.28-3.52 14.58-3.52 14.58-1.76 33.28-1.76 33.28 0 12.82 0 12.82-40.43 33.28-40.43 33.28-38.67 14.58-38.67 14.58-36.91 33.28-36.91 33.28-35.16 14.58-35.16 14.58-33.4 33.28-33.4 33.28-31.64 14.58-31.64 14.58-24.61 24.17-24.61 24.17-22.85 14.58-22.85 14.58-21.09 24.17-21.09 24.17-19.34 14.58-19.34 14.58-17.58 24.17-17.58 24.17-15.82 14.58-15.82ZM37.6 0L37.6-35.16 39.35-35.16 39.35 0 37.6 0ZM48.14 0L48.14-35.16 49.9-35.16 49.9-8.79 62.86-8.79 62.86-7.03 49.9-7.03 49.9-5.27 62.86-5.27 62.86-3.52 49.9-3.52 49.9-1.76 62.86-1.76 62.86 0 48.14 0ZM44.63 0L44.63-35.16 46.38-35.16 46.38 0 44.63 0ZM41.11 0L41.11-35.16 42.87-35.16 42.87 0 41.11 0ZM75.53-35.16L75.53 0 73.77 0 73.77-35.16 75.53-35.16ZM72.02-35.16L72.02 0 70.26 0 70.26-35.16 72.02-35.16ZM68.5-35.16L68.5 0 66.74 0 66.74-35.16 68.5-35.16ZM79.05-13.21L79.05-8.79 95.87-8.79 95.87-7.03 79.05-7.03 79.05-5.27 95.87-5.27 95.87-3.52 79.05-3.52 79.05-1.76 95.87-1.76 95.87 0 77.29 0 77.29-35.16 95.87-35.16 95.87-33.4 79.05-33.4 79.05-31.64 95.87-31.64 95.87-29.88 79.05-29.88 79.05-28.13 95.87-28.13 95.87-26.37 79.05-26.37 79.05-22 94.89-22 94.89-20.24 79.05-20.24 79.05-18.48 94.89-18.48 94.89-16.72 79.05-16.72 79.05-14.97 94.89-14.97 94.89-13.21 79.05-13.21ZM112.61 0L98.7-35.16 100.6-35.16 113.57-2.37 126.53-35.16 128.41-35.16 114.52 0 112.61 0ZM113.79-6.54L102.48-35.16 104.36-35.16 114.79-8.79 113.79-6.54ZM115.74-11.18L106.27-35.16 108.17-35.16 116.67-13.6 115.74-11.18ZM117.6-16.02L110.05-35.16 111.93-35.16 118.52-18.48 117.6-16.02ZM123.97 0L137.86-35.16 139.76-35.16 125.85 0 123.97 0ZM120.18 0L134.1-35.16 135.98-35.16 122.06 0 120.18 0ZM116.4 0L130.29-35.16 132.19-35.16 118.28 0 116.4 0ZM165.25 0L165.25-17.33Q165.25-20.46 163.32-22.17 161.39-23.88 158.22-23.88L158.22-23.88Q155.53-23.88 153.6-22.02 151.67-20.17 151.67-17.58L151.67-17.58Q151.67-16.11 152.07-14.95 152.46-13.79 153.13-13.02 153.8-12.26 154.73-11.76 155.65-11.25 156.67-11.04 157.68-10.82 158.83-10.82L158.83-10.82Q161.61-10.82 163.91-12.18L163.91-12.18 163.91-10.42Q161.54-9.18 158.8-9.18L158.8-9.18Q157.05-9.18 155.5-9.66 153.95-10.13 152.68-11.1 151.41-12.06 150.66-13.73 149.92-15.41 149.92-17.58L149.92-17.58Q149.92-20.95 152.28-23.29 154.65-25.63 158.22-25.63L158.22-25.63Q162.15-25.63 164.58-23.43 167.01-21.22 167.01-17.33L167.01-17.33 167.01 0 165.25 0ZM170.52-17.33L170.52-17.33 170.52 0 168.76 0 168.76-17.33Q168.76-21.95 165.81-24.67 162.86-27.39 158.22-27.39L158.22-27.39Q153.92-27.39 151.04-24.54 148.16-21.68 148.16-17.58L148.16-17.58Q148.16-15.09 149.03-13.11 149.89-11.13 151.38-9.94 152.87-8.74 154.71-8.12 156.56-7.5 158.61-7.5L158.61-7.5Q161.39-7.5 163.91-8.79L163.91-8.79 163.91-6.93Q161.27-5.83 158.58-5.83L158.58-5.83Q156.17-5.83 153.99-6.58 151.82-7.32 150.11-8.75 148.4-10.18 147.4-12.46 146.4-14.75 146.4-17.58L146.4-17.58Q146.4-22.39 149.81-25.77 153.21-29.15 158.22-29.15L158.22-29.15Q161.73-29.15 164.52-27.72 167.3-26.29 168.91-23.58 170.52-20.87 170.52-17.33ZM174.04-17.33L174.04-17.33 174.04 0 172.28 0 172.28-17.33Q172.28-21.36 170.44-24.48 168.59-27.59 165.4-29.25 162.2-30.91 158.22-30.91L158.22-30.91Q154.43-30.91 151.31-29.11 148.18-27.32 146.41-24.27 144.64-21.22 144.64-17.58L144.64-17.58Q144.64-14.45 145.79-11.88 146.94-9.3 148.88-7.64 150.82-5.98 153.3-5.07 155.78-4.15 158.49-4.15L158.49-4.15Q161.24-4.15 163.91-5.3L163.91-5.3 163.91-3.52Q161.12-2.47 158.44-2.47L158.44-2.47Q154.21-2.47 150.67-4.37 147.13-6.27 145.01-9.77 142.89-13.26 142.89-17.58L142.89-17.58Q142.89-20.65 144.07-23.44 145.25-26.22 147.28-28.25 149.31-30.27 152.16-31.47 155.02-32.67 158.22-32.67L158.22-32.67Q162.69-32.67 166.29-30.76 169.89-28.86 171.96-25.34 174.04-21.83 174.04-17.33ZM177.55-17.33L177.55-17.33 177.55 0 175.8 0 175.8-17.33Q175.8-22.31 173.48-26.23 171.16-30.15 167.15-32.29 163.15-34.42 158.22-34.42L158.22-34.42Q153.48-34.42 149.55-32.15 145.62-29.88 143.37-26.01 141.13-22.14 141.13-17.58L141.13-17.58Q141.13-14.58 142.09-11.88 143.06-9.18 144.73-7.17 146.4-5.15 148.59-3.69 150.77-2.22 153.3-1.46 155.82-0.71 158.44-0.71L158.44-0.71Q161.32-0.71 163.91-1.81L163.91-1.81 163.91 0Q161.2 0.95 158.34 0.95L158.34 0.95Q155.39 0.95 152.59 0.12 149.79-0.71 147.41-2.33 145.03-3.96 143.23-6.16 141.42-8.37 140.4-11.33 139.37-14.28 139.37-17.58L139.37-17.58Q139.37-21.36 140.8-24.79 142.23-28.22 144.7-30.73 147.18-33.23 150.71-34.7 154.24-36.18 158.22-36.18L158.22-36.18Q162.27-36.18 165.83-34.81 169.4-33.45 171.99-31.02 174.57-28.59 176.06-25.05 177.55-21.51 177.55-17.33ZM188.12 0L188.12-25.42 189.88-25.42 189.88 0 188.12 0ZM207.46-33.4L181.09-33.4 181.09-35.16 207.46-35.16 207.46-33.4ZM207.46-29.88L181.09-29.88 181.09-31.64 207.46-31.64 207.46-29.88ZM207.46-26.37L181.09-26.37 181.09-28.13 207.46-28.13 207.46-26.37ZM198.67 0L198.67-25.42 200.43-25.42 200.43 0 198.67 0ZM195.15 0L195.15-25.42 196.91-25.42 196.91 0 195.15 0ZM191.64 0L191.64-25.42 193.4-25.42 193.4 0 191.64 0ZM221.86 0L221.86-35.16 223.62-35.16 223.62 0 221.86 0ZM218.34 0L218.34-35.16 220.1-35.16 220.1 0 218.34 0ZM214.83 0L214.83-35.16 216.59-35.16 216.59 0 214.83 0ZM211.31 0L211.31-35.16 213.07-35.16 213.07 0 211.31 0ZM255.94-35.16L255.94-14.18 254.18-17.38 254.18-35.16 255.94-35.16ZM259.46-35.16L259.46-8.11 257.7-11.08 257.7-35.16 259.46-35.16ZM235.24 0L235.24-20.97 236.99-17.77 236.99 0 235.24 0ZM231.72 0L231.72-27.29 233.48-24.07 233.48 0 231.72 0ZM252.69 0L232.33-35.16 234.38-35.16 254.74 0 252.69 0ZM256.79 0L236.48-35.16 238.56-35.16 258.89 0 256.79 0ZM260.9 0L240.61-35.16 242.66-35.16 261.21-3.05 261.21-35.16 262.97-35.16 262.97 0 260.9 0ZM248.57 0L229.96-32.13 229.96 0 228.21 0 228.21-35.16 230.3-35.16 250.59 0 248.57 0ZM292.29-12.62L292.29-17.82 294.05-17.82 294.05 0Q290.14 1.76 285.97 1.76L285.97 1.76Q282.04 1.76 278.46 0.22 274.88-1.32 272.29-3.91 269.71-6.49 268.17-10.07 266.63-13.65 266.63-17.58 266.63-21.51 268.17-25.09 269.71-28.66 272.29-31.25 274.88-33.84 278.46-35.38 282.04-36.91 285.97-36.91L285.97-36.91Q290.46-36.91 294.41-34.97 298.37-33.03 301.08-29.64L301.08-29.64 299.66-28.59Q297.2-31.64 293.62-33.4 290.04-35.16 285.97-35.16L285.97-35.16Q282.4-35.16 279.14-33.76 275.88-32.37 273.53-30.02 271.17-27.66 269.78-24.4 268.39-21.14 268.39-17.58 268.39-14.01 269.78-10.75 271.17-7.5 273.53-5.14 275.88-2.78 279.14-1.39 282.4 0 285.97 0L285.97 0Q289.26 0 292.29-1.17L292.29-1.17 292.29-2.98Q289.24-1.76 285.97-1.76L285.97-1.76Q282.74-1.76 279.81-3.02 276.88-4.27 274.77-6.38 272.66-8.5 271.4-11.43 270.15-14.36 270.15-17.58 270.15-20.8 271.4-23.73 272.66-26.66 274.77-28.77 276.88-30.88 279.81-32.14 282.74-33.4 285.97-33.4L285.97-33.4Q289.65-33.4 292.89-31.81 296.12-30.22 298.34-27.44L298.34-27.44 296.98-26.34Q295-28.81 292.12-30.22 289.24-31.64 285.97-31.64L285.97-31.64Q283.11-31.64 280.51-30.53 277.91-29.42 276.02-27.53 274.13-25.63 273.01-23.03 271.9-20.43 271.9-17.58 271.9-14.72 273.01-12.12 274.13-9.52 276.02-7.63 277.91-5.74 280.51-4.63 283.11-3.52 285.97-3.52L285.97-3.52Q289.34-3.52 292.29-4.88L292.29-4.88 292.29-6.69Q289.34-5.27 285.97-5.27L285.97-5.27Q282.62-5.27 279.79-6.92 276.96-8.57 275.31-11.4 273.66-14.23 273.66-17.58 273.66-20.92 275.31-23.75 276.96-26.59 279.79-28.23 282.62-29.88 285.97-29.88L285.97-29.88Q288.82-29.88 291.35-28.65 293.88-27.42 295.59-25.24L295.59-25.24 294.19-24.17Q292.73-26.03 290.57-27.08 288.41-28.13 285.97-28.13L285.97-28.13Q281.6-28.13 278.51-25.02 275.42-21.92 275.42-17.58 275.42-13.23 278.51-10.13 281.6-7.03 285.97-7.03L285.97-7.03Q289.38-7.03 292.29-8.69L292.29-8.69 292.29-10.47Q289.43-8.79 285.97-8.79L285.97-8.79Q282.33-8.79 279.75-11.36 277.18-13.94 277.18-17.58 277.18-21.22 279.75-23.79 282.33-26.37 285.97-26.37L285.97-26.37Q288.02-26.37 289.82-25.48 291.63-24.58 292.85-23.05L292.85-23.05 291.44-21.97Q289.31-24.61 285.97-24.61L285.97-24.61Q283.06-24.61 281-22.55 278.94-20.48 278.94-17.58 278.94-14.67 281-12.61 283.06-10.55 285.97-10.55L285.97-10.55Q289.7-10.55 292.29-12.62L292.29-12.62ZM302.84 0L302.84-17.82 304.59-17.82 304.59 0 302.84 0ZM299.32 0L299.32-17.82 301.08-17.82 301.08 0 299.32 0ZM295.81 0L295.81-17.82 297.56-17.82 297.56 0 295.81 0ZM324.88 0L324.88-40.43 326.64-40.43 326.64 0 324.88 0ZM321.36 0L321.36-40.43 323.12-40.43 323.12 0 321.36 0ZM317.85 0L317.85-40.43 319.6-40.43 319.6 0 317.85 0ZM314.33 0L314.33-40.43 316.09-40.43 316.09 0 314.33 0ZM359.01-35.16L359.01-14.18 357.25-17.38 357.25-35.16 359.01-35.16ZM362.52-35.16L362.52-8.11 360.76-11.08 360.76-35.16 362.52-35.16ZM338.3 0L338.3-20.97 340.06-17.77 340.06 0 338.3 0ZM334.79 0L334.79-27.29 336.54-24.07 336.54 0 334.79 0ZM355.76 0L335.4-35.16 337.45-35.16 357.81 0 355.76 0ZM359.86 0L339.55-35.16 341.62-35.16 361.96 0 359.86 0ZM363.96 0L343.67-35.16 345.72-35.16 364.28-3.05 364.28-35.16 366.04-35.16 366.04 0 363.96 0ZM351.63 0L333.03-32.13 333.03 0 331.27 0 331.27-35.16 333.37-35.16 353.66 0 351.63 0ZM376.85 0L376.85-25.42 378.61-25.42 378.61 0 376.85 0ZM396.19-33.4L369.82-33.4 369.82-35.16 396.19-35.16 396.19-33.4ZM396.19-29.88L369.82-29.88 369.82-31.64 396.19-31.64 396.19-29.88ZM396.19-26.37L369.82-26.37 369.82-28.13 396.19-28.13 396.19-26.37ZM387.4 0L387.4-25.42 389.15-25.42 389.15 0 387.4 0ZM383.88 0L383.88-25.42 385.64-25.42 385.64 0 383.88 0ZM380.37 0L380.37-25.42 382.12-25.42 382.12 0 380.37 0ZM408.83-35.16L408.83 0 407.07 0 407.07-35.16 408.83-35.16ZM405.31-35.16L405.31 0 403.56 0 403.56-35.16 405.31-35.16ZM401.8-35.16L401.8 0 400.04 0 400.04-35.16 401.8-35.16ZM412.35-13.21L412.35-8.79 429.17-8.79 429.17-7.03 412.35-7.03 412.35-5.27 429.17-5.27 429.17-3.52 412.35-3.52 412.35-1.76 429.17-1.76 429.17 0 410.59 0 410.59-35.16 429.17-35.16 429.17-33.4 412.35-33.4 412.35-31.64 429.17-31.64 429.17-29.88 412.35-29.88 412.35-28.13 429.17-28.13 429.17-26.37 412.35-26.37 412.35-22 428.19-22 428.19-20.24 412.35-20.24 412.35-18.48 428.19-18.48 428.19-16.72 412.35-16.72 412.35-14.97 428.19-14.97 428.19-13.21 412.35-13.21ZM433.39 0L433.39-35.16 435.15-35.16 435.15 0 433.39 0ZM443.93 0L443.93-35.16 445.69-35.16 445.69-8.79 458.66-8.79 458.66-7.03 445.69-7.03 445.69-5.27 458.66-5.27 458.66-3.52 445.69-3.52 445.69-1.76 458.66-1.76 458.66 0 443.93 0ZM440.42 0L440.42-35.16 442.18-35.16 442.18 0 440.42 0ZM436.9 0L436.9-35.16 438.66-35.16 438.66 0 436.9 0ZM462.54 0L462.54-35.16 464.29-35.16 464.29 0 462.54 0ZM473.08 0L473.08-35.16 474.84-35.16 474.84-8.79 487.8-8.79 487.8-7.03 474.84-7.03 474.84-5.27 487.8-5.27 487.8-3.52 474.84-3.52 474.84-1.76 487.8-1.76 487.8 0 473.08 0ZM469.57 0L469.57-35.16 471.32-35.16 471.32 0 469.57 0ZM466.05 0L466.05-35.16 467.81-35.16 467.81 0 466.05 0ZM502.23 0L502.23-35.16 503.99-35.16 503.99 0 502.23 0ZM498.71 0L498.71-35.16 500.47-35.16 500.47 0 498.71 0ZM495.2 0L495.2-35.16 496.96-35.16 496.96 0 495.2 0ZM491.68 0L491.68-35.16 493.44-35.16 493.44 0 491.68 0ZM533.31-12.62L533.31-17.82 535.06-17.82 535.06 0Q531.16 1.76 526.98 1.76L526.98 1.76Q523.05 1.76 519.48 0.22 515.9-1.32 513.31-3.91 510.72-6.49 509.19-10.07 507.65-13.65 507.65-17.58 507.65-21.51 509.19-25.09 510.72-28.66 513.31-31.25 515.9-33.84 519.48-35.38 523.05-36.91 526.98-36.91L526.98-36.91Q531.48-36.91 535.43-34.97 539.39-33.03 542.1-29.64L542.1-29.64 540.68-28.59Q538.21-31.64 534.64-33.4 531.06-35.16 526.98-35.16L526.98-35.16Q523.42-35.16 520.16-33.76 516.9-32.37 514.54-30.02 512.19-27.66 510.8-24.4 509.41-21.14 509.41-17.58 509.41-14.01 510.8-10.75 512.19-7.5 514.54-5.14 516.9-2.78 520.16-1.39 523.42 0 526.98 0L526.98 0Q530.28 0 533.31-1.17L533.31-1.17 533.31-2.98Q530.26-1.76 526.98-1.76L526.98-1.76Q523.76-1.76 520.83-3.02 517.9-4.27 515.79-6.38 513.68-8.5 512.42-11.43 511.16-14.36 511.16-17.58 511.16-20.8 512.42-23.73 513.68-26.66 515.79-28.77 517.9-30.88 520.83-32.14 523.76-33.4 526.98-33.4L526.98-33.4Q530.67-33.4 533.91-31.81 537.14-30.22 539.36-27.44L539.36-27.44 537.99-26.34Q536.02-28.81 533.14-30.22 530.26-31.64 526.98-31.64L526.98-31.64Q524.13-31.64 521.53-30.53 518.93-29.42 517.04-27.53 515.14-25.63 514.03-23.03 512.92-20.43 512.92-17.58 512.92-14.72 514.03-12.12 515.14-9.52 517.04-7.63 518.93-5.74 521.53-4.63 524.13-3.52 526.98-3.52L526.98-3.52Q530.35-3.52 533.31-4.88L533.31-4.88 533.31-6.69Q530.35-5.27 526.98-5.27L526.98-5.27Q523.64-5.27 520.81-6.92 517.98-8.57 516.33-11.4 514.68-14.23 514.68-17.58 514.68-20.92 516.33-23.75 517.98-26.59 520.81-28.23 523.64-29.88 526.98-29.88L526.98-29.88Q529.84-29.88 532.37-28.65 534.89-27.42 536.6-25.24L536.6-25.24 535.21-24.17Q533.75-26.03 531.59-27.08 529.43-28.13 526.98-28.13L526.98-28.13Q522.61-28.13 519.53-25.02 516.44-21.92 516.44-17.58 516.44-13.23 519.53-10.13 522.61-7.03 526.98-7.03L526.98-7.03Q530.4-7.03 533.31-8.69L533.31-8.69 533.31-10.47Q530.45-8.79 526.98-8.79L526.98-8.79Q523.35-8.79 520.77-11.36 518.19-13.94 518.19-17.58 518.19-21.22 520.77-23.79 523.35-26.37 526.98-26.37L526.98-26.37Q529.03-26.37 530.84-25.48 532.65-24.58 533.87-23.05L533.87-23.05 532.45-21.97Q530.33-24.61 526.98-24.61L526.98-24.61Q524.08-24.61 522.02-22.55 519.95-20.48 519.95-17.58 519.95-14.67 522.02-12.61 524.08-10.55 526.98-10.55L526.98-10.55Q530.72-10.55 533.31-12.62L533.31-12.62ZM543.85 0L543.85-17.82 545.61-17.82 545.61 0 543.85 0ZM540.34 0L540.34-17.82 542.1-17.82 542.1 0 540.34 0ZM536.82 0L536.82-17.82 538.58-17.82 538.58 0 536.82 0ZM558.72-35.16L558.72 0 556.96 0 556.96-35.16 558.72-35.16ZM555.2-35.16L555.2 0 553.45 0 553.45-35.16 555.2-35.16ZM551.69-35.16L551.69 0 549.93 0 549.93-35.16 551.69-35.16ZM562.24-13.21L562.24-8.79 579.06-8.79 579.06-7.03 562.24-7.03 562.24-5.27 579.06-5.27 579.06-3.52 562.24-3.52 562.24-1.76 579.06-1.76 579.06 0 560.48 0 560.48-35.16 579.06-35.16 579.06-33.4 562.24-33.4 562.24-31.64 579.06-31.64 579.06-29.88 562.24-29.88 562.24-28.13 579.06-28.13 579.06-26.37 562.24-26.37 562.24-22 578.08-22 578.08-20.24 562.24-20.24 562.24-18.48 578.08-18.48 578.08-16.72 562.24-16.72 562.24-14.97 578.08-14.97 578.08-13.21 562.24-13.21ZM611.01-35.16L611.01-14.18 609.25-17.38 609.25-35.16 611.01-35.16ZM614.53-35.16L614.53-8.11 612.77-11.08 612.77-35.16 614.53-35.16ZM590.31 0L590.31-20.97 592.07-17.77 592.07 0 590.31 0ZM586.79 0L586.79-27.29 588.55-24.07 588.55 0 586.79 0ZM607.76 0L587.4-35.16 589.45-35.16 609.82 0 607.76 0ZM611.87 0L591.55-35.16 593.63-35.16 613.97 0 611.87 0ZM615.97 0L595.68-35.16 597.73-35.16 616.29-3.05 616.29-35.16 618.04-35.16 618.04 0 615.97 0ZM603.64 0L585.04-32.13 585.04 0 583.28 0 583.28-35.16 585.38-35.16 605.67 0 603.64 0ZM647.92-23.05L647.92-23.05 646.51-21.97Q644.38-24.61 641.04-24.61L641.04-24.61Q638.13-24.61 636.07-22.55 634.01-20.48 634.01-17.58 634.01-14.67 636.07-12.61 638.13-10.55 641.04-10.55L641.04-10.55Q642.67-10.55 644.1-11.25 645.53-11.96 646.53-13.21L646.53-13.21 647.9-12.06Q646.68-10.52 644.87-9.66 643.07-8.79 641.04-8.79L641.04-8.79Q637.4-8.79 634.83-11.36 632.25-13.94 632.25-17.58 632.25-21.22 634.83-23.79 637.4-26.37 641.04-26.37L641.04-26.37Q643.09-26.37 644.9-25.48 646.7-24.58 647.92-23.05ZM650.66-25.24L650.66-25.24 649.27-24.17Q647.8-26.03 645.64-27.08 643.48-28.13 641.04-28.13L641.04-28.13Q636.67-28.13 633.58-25.02 630.49-21.92 630.49-17.58 630.49-13.23 633.58-10.13 636.67-7.03 641.04-7.03L641.04-7.03Q643.48-7.03 645.65-8.09 647.83-9.16 649.29-11.01L649.29-11.01 650.63-9.89Q648.92-7.74 646.41-6.51 643.9-5.27 641.04-5.27L641.04-5.27Q637.69-5.27 634.86-6.92 632.03-8.57 630.38-11.4 628.73-14.23 628.73-17.58 628.73-20.92 630.38-23.75 632.03-26.59 634.86-28.23 637.69-29.88 641.04-29.88L641.04-29.88Q643.9-29.88 646.42-28.65 648.95-27.42 650.66-25.24ZM653.42-27.44L653.42-27.44 652.05-26.34Q650.07-28.81 647.19-30.22 644.31-31.64 641.04-31.64L641.04-31.64Q638.18-31.64 635.58-30.53 632.98-29.42 631.09-27.53 629.2-25.63 628.09-23.03 626.98-20.43 626.98-17.58 626.98-14.72 628.09-12.12 629.2-9.52 631.09-7.63 632.98-5.74 635.58-4.63 638.18-3.52 641.04-3.52L641.04-3.52Q644.31-3.52 647.19-4.93 650.07-6.35 652.05-8.81L652.05-8.81 653.37-7.67Q651.15-4.91 647.92-3.33 644.7-1.76 641.04-1.76L641.04-1.76Q637.82-1.76 634.89-3.02 631.96-4.27 629.85-6.38 627.73-8.5 626.48-11.43 625.22-14.36 625.22-17.58 625.22-20.8 626.48-23.73 627.73-26.66 629.85-28.77 631.96-30.88 634.89-32.14 637.82-33.4 641.04-33.4L641.04-33.4Q644.73-33.4 647.96-31.81 651.2-30.22 653.42-27.44ZM656.15-29.64L656.15-29.64 654.74-28.59Q652.27-31.64 648.69-33.4 645.12-35.16 641.04-35.16L641.04-35.16Q637.47-35.16 634.22-33.76 630.96-32.37 628.6-30.02 626.24-27.66 624.85-24.4 623.46-21.14 623.46-17.58 623.46-14.01 624.85-10.75 626.24-7.5 628.6-5.14 630.96-2.78 634.22-1.39 637.47 0 641.04 0L641.04 0Q645.12 0 648.69-1.76 652.27-3.52 654.74-6.57L654.74-6.57 656.13-5.49Q653.42-2.12 649.47-0.18 645.53 1.76 641.04 1.76L641.04 1.76Q637.11 1.76 633.53 0.22 629.95-1.32 627.37-3.91 624.78-6.49 623.24-10.07 621.7-13.65 621.7-17.58 621.7-21.51 623.24-25.09 624.78-28.66 627.37-31.25 629.95-33.84 633.53-35.38 637.11-36.91 641.04-36.91L641.04-36.91Q645.53-36.91 649.49-34.97 653.44-33.03 656.15-29.64ZM668.26-35.16L668.26 0 666.5 0 666.5-35.16 668.26-35.16ZM664.74-35.16L664.74 0 662.98 0 662.98-35.16 664.74-35.16ZM661.23-35.16L661.23 0 659.47 0 659.47-35.16 661.23-35.16ZM671.77-13.21L671.77-8.79 688.59-8.79 688.59-7.03 671.77-7.03 671.77-5.27 688.59-5.27 688.59-3.52 671.77-3.52 671.77-1.76 688.59-1.76 688.59 0 670.02 0 670.02-35.16 688.59-35.16 688.59-33.4 671.77-33.4 671.77-31.64 688.59-31.64 688.59-29.88 671.77-29.88 671.77-28.13 688.59-28.13 688.59-26.37 671.77-26.37 671.77-22 687.62-22 687.62-20.24 671.77-20.24 671.77-18.48 687.62-18.48 687.62-16.72 671.77-16.72 671.77-14.97 687.62-14.97 687.62-13.21 671.77-13.21ZM694.23-1.78L692.47-1.78 692.47-8.81 694.23-8.81 694.23-1.78ZM692.47 3.49L692.47 3.49 692.47 1.73Q693.5 1.73 694.2 1.51 694.89 1.29 695.23 1.03 695.57 0.76 695.76 0.2 695.94-0.37 695.97-0.72 695.99-1.07 695.99-1.78L695.99-1.78 695.99-8.81 697.75-8.81 697.75-1.78Q697.75-1.25 697.74-0.93 697.72-0.61 697.63 0.01 697.53 0.63 697.33 1.04 697.14 1.44 696.76 1.95 696.38 2.47 695.83 2.77 695.28 3.08 694.43 3.28 693.57 3.49 692.47 3.49ZM692.47 7.01L692.47 7.01 692.47 5.25Q693.62 5.25 694.56 5.11 695.5 4.98 696.19 4.79 696.87 4.59 697.41 4.2 697.94 3.81 698.28 3.48 698.63 3.15 698.87 2.58 699.11 2 699.24 1.61 699.36 1.22 699.42 0.51 699.48-0.2 699.49-0.6 699.51-1 699.51-1.78L699.51-1.78 699.51-8.81 701.26-8.81 701.26-1.78Q701.26-1 701.25-0.55 701.24-0.1 701.15 0.73 701.07 1.56 700.92 2.08 700.78 2.59 700.47 3.32 700.16 4.05 699.74 4.52 699.31 4.98 698.64 5.51 697.97 6.03 697.11 6.32 696.26 6.62 695.07 6.81 693.89 7.01 692.47 7.01ZM724.55-17.38L724.55-19.14 734.75-19.14Q737.27-19.14 739.01-20.84 740.76-22.53 740.76-25.63L740.76-25.63Q740.76-27.95 738.93-29.8 737.1-31.64 734.75-31.64L734.75-31.64 719.67-31.64 719.67 0 717.91 0 717.91-33.4 734.75-33.4Q737.83-33.4 740.17-31.03 742.52-28.66 742.52-25.63L742.52-25.63Q742.52-21.9 740.25-19.64 737.98-17.38 734.75-17.38L734.75-17.38 724.55-17.38ZM724.55-13.87L724.55-15.63 734.75-15.63Q737.29-15.63 739.45-16.86 741.61-18.09 742.95-20.41 744.28-22.73 744.28-25.63L744.28-25.63Q744.28-29.39 741.41-32.28 738.54-35.16 734.75-35.16L734.75-35.16 716.15-35.16 716.15 0 714.39 0 714.39-36.91 734.75-36.91Q737.71-36.91 740.32-35.35 742.93-33.79 744.48-31.18 746.03-28.56 746.03-25.63L746.03-25.63Q746.03-22.31 744.47-19.59 742.91-16.87 740.33-15.37 737.76-13.87 734.75-13.87L734.75-13.87 724.55-13.87ZM724.55-10.35L724.55-12.11 734.75-12.11Q737.37-12.11 739.76-13.15 742.15-14.18 743.92-15.95 745.69-17.72 746.74-20.25 747.79-22.78 747.79-25.63L747.79-25.63Q747.79-29.05 746.01-32.07 744.23-35.08 741.21-36.88 738.2-38.67 734.75-38.67L734.75-38.67 712.64-38.67 712.64 0 710.88 0 710.88-40.43 734.75-40.43Q738.66-40.43 742.08-38.39 745.5-36.35 747.52-32.93 749.55-29.52 749.55-25.63L749.55-25.63Q749.55-22.17 748.35-19.25 747.16-16.33 745.13-14.4 743.1-12.48 740.42-11.41 737.73-10.35 734.75-10.35L734.75-10.35 724.55-10.35ZM723.18-28.13L723.18 0 721.42 0 721.42-29.88 734.75-29.88Q736.49-29.88 737.75-28.61 739-27.34 739-25.63L739-25.63Q739-20.9 734.75-20.9L734.75-20.9 724.55-20.9 724.55-22.66 734.75-22.66Q735.93-22.66 736.59-23.32 737.24-23.97 737.24-25.63L737.24-25.63Q737.24-26.71 736.52-27.42 735.8-28.13 734.75-28.13L734.75-28.13 723.18-28.13ZM766.84-22.55Q764.78-20.48 764.78-17.58 764.78-14.67 766.84-12.61 768.91-10.55 771.81-10.55 774.72-10.55 776.78-12.61 778.84-14.67 778.84-17.58 778.84-20.48 776.78-22.55 774.72-24.61 771.81-24.61 768.91-24.61 766.84-22.55ZM765.6-11.36Q763.02-13.94 763.02-17.58 763.02-21.22 765.6-23.79 768.17-26.37 771.81-26.37 775.45-26.37 778.03-23.79 780.6-21.22 780.6-17.58 780.6-13.94 778.03-11.36 775.45-8.79 771.81-8.79 768.17-8.79 765.6-11.36ZM764.35-25.02Q761.27-21.92 761.27-17.58 761.27-13.23 764.35-10.13 767.44-7.03 771.81-7.03 776.18-7.03 779.27-10.13 782.36-13.23 782.36-17.58 782.36-21.92 779.27-25.02 776.18-28.13 771.81-28.13 767.44-28.13 764.35-25.02ZM761.16-11.4Q759.51-14.23 759.51-17.58 759.51-20.92 761.16-23.75 762.8-26.59 765.64-28.23 768.47-29.88 771.81-29.88 775.16-29.88 777.99-28.23 780.82-26.59 782.47-23.75 784.12-20.92 784.12-17.58 784.12-14.23 782.47-11.4 780.82-8.57 777.99-6.92 775.16-5.27 771.81-5.27 768.47-5.27 765.64-6.92 762.8-8.57 761.16-11.4ZM758.86-23.03Q757.75-20.43 757.75-17.58 757.75-14.72 758.86-12.12 759.97-9.52 761.86-7.63 763.76-5.74 766.36-4.63 768.96-3.52 771.81-3.52 774.67-3.52 777.27-4.63 779.87-5.74 781.76-7.63 783.65-9.52 784.76-12.12 785.87-14.72 785.87-17.58 785.87-20.43 784.76-23.03 783.65-25.63 781.76-27.53 779.87-29.42 777.27-30.53 774.67-31.64 771.81-31.64 768.96-31.64 766.36-30.53 763.76-29.42 761.86-27.53 759.97-25.63 758.86-23.03ZM757.25-11.43Q755.99-14.36 755.99-17.58 755.99-20.8 757.25-23.73 758.51-26.66 760.62-28.77 762.73-30.88 765.66-32.14 768.59-33.4 771.81-33.4 775.04-33.4 777.96-32.14 780.89-30.88 783.01-28.77 785.12-26.66 786.38-23.73 787.63-20.8 787.63-17.58 787.63-14.36 786.38-11.43 785.12-8.5 783.01-6.38 780.89-4.27 777.96-3.02 775.04-1.76 771.81-1.76 768.59-1.76 765.66-3.02 762.73-4.27 760.62-6.38 758.51-8.5 757.25-11.43ZM755.63-24.4Q754.23-21.14 754.23-17.58 754.23-14.01 755.63-10.75 757.02-7.5 759.37-5.14 761.73-2.78 764.99-1.39 768.25 0 771.81 0 775.38 0 778.64-1.39 781.9-2.78 784.25-5.14 786.61-7.5 788-10.75 789.39-14.01 789.39-17.58 789.39-21.14 788-24.4 786.61-27.66 784.25-30.02 781.9-32.37 778.64-33.76 775.38-35.16 771.81-35.16 768.25-35.16 764.99-33.76 761.73-32.37 759.37-30.02 757.02-27.66 755.63-24.4ZM754.01-10.07Q752.48-13.65 752.48-17.58 752.48-21.51 754.01-25.09 755.55-28.66 758.14-31.25 760.73-33.84 764.31-35.38 767.88-36.91 771.81-36.91 775.74-36.91 779.32-35.38 782.9-33.84 785.48-31.25 788.07-28.66 789.61-25.09 791.15-21.51 791.15-17.58 791.15-13.65 789.61-10.07 788.07-6.49 785.48-3.91 782.9-1.32 779.32 0.22 775.74 1.76 771.81 1.76 767.88 1.76 764.31 0.22 760.73-1.32 758.14-3.91 755.55-6.49 754.01-10.07ZM829.76-11.32Q830.26-11.28 830.99-11.28 831.72-11.28 832.22-11.32 832.72-11.35 833.26-11.51 833.8-11.67 834.11-11.94 834.43-12.21 834.64-12.71 834.85-13.21 834.85-13.92L834.85-13.92 834.85-35.16 836.6-35.16 836.6-13.92Q836.6-9.52 830.99-9.52L830.99-9.52Q828.16-9.52 826.79-10.6L826.79-10.6Q826.6-9.64 826.33-8.91L826.33-8.91Q828.18-7.76 830.99-7.76L830.99-7.76Q834.26-7.76 836.31-9.29 838.36-10.82 838.36-13.92L838.36-13.92 838.36-35.16 840.12-35.16 840.12-13.92Q840.12-10.08 837.54-8.04 834.97-6.01 830.99-6.01L830.99-6.01Q827.89-6.01 825.67-7.28L825.67-7.28Q825.3-6.49 824.81-5.79L824.81-5.79Q827.47-4.25 830.99-4.25L830.99-4.25Q833.26-4.25 835.23-4.88 837.19-5.52 838.68-6.71 840.17-7.91 841.02-9.77 841.88-11.62 841.88-13.92L841.88-13.92 841.88-35.16 843.64-35.16 843.64-13.92Q843.64-10.4 841.91-7.76 840.19-5.13 837.35-3.81 834.51-2.49 830.99-2.49L830.99-2.49Q826.89-2.49 823.76-4.37L823.76-4.37Q823.08-3.59 822.52-3.1L822.52-3.1Q826.16-0.73 830.99-0.73L830.99-0.73Q834.97-0.73 838.22-2.29 841.46-3.86 843.43-6.9 845.39-9.94 845.39-13.92L845.39-13.92 845.39-35.16 847.15-35.16 847.15-13.92Q847.15-10.55 845.87-7.71 844.59-4.88 842.4-2.98 840.22-1.07 837.26-0.02 834.31 1.03 830.99 1.03L830.99 1.03Q825.18 1.03 821.05-1.95L821.05-1.95Q816.78 1.03 810.97 1.03L810.97 1.03Q807.65 1.03 804.7-0.02 801.74-1.07 799.56-2.98 797.37-4.88 796.09-7.71 794.81-10.55 794.81-13.92L794.81-13.92 794.81-35.16 796.57-35.16 796.57-13.92Q796.57-10.91 797.7-8.4 798.84-5.88 800.79-4.22 802.74-2.56 805.37-1.65 807.99-0.73 810.97-0.73L810.97-0.73Q814.85-0.73 818.17-2.5 821.49-4.27 823.43-7.31 825.37-10.35 825.37-13.92L825.37-13.92 825.37-35.16 827.13-35.16 827.13-13.92Q827.13-13.21 827.34-12.71 827.55-12.21 827.86-11.94 828.18-11.67 828.72-11.51 829.26-11.35 829.76-11.32ZM814.83-35.16L816.59-35.16 816.59-13.92Q816.59-9.52 810.97-9.52 805.35-9.52 805.35-13.92L805.35-13.92 805.35-35.16 807.11-35.16 807.11-13.92Q807.11-13.21 807.32-12.71 807.53-12.21 807.85-11.94 808.16-11.67 808.7-11.51 809.24-11.35 809.74-11.32 810.24-11.28 810.97-11.28 811.7-11.28 812.2-11.32 812.7-11.35 813.24-11.51 813.78-11.67 814.1-11.94 814.41-12.21 814.62-12.71 814.83-13.21 814.83-13.92L814.83-13.92 814.83-35.16ZM818.34-35.16L820.1-35.16 820.1-13.92Q820.1-10.08 817.53-8.04 814.95-6.01 810.97-6.01 806.99-6.01 804.41-8.04 801.84-10.08 801.84-13.92L801.84-13.92 801.84-35.16 803.6-35.16 803.6-13.92Q803.6-10.82 805.65-9.29 807.7-7.76 810.97-7.76 814.24-7.76 816.29-9.29 818.34-10.82 818.34-13.92L818.34-13.92 818.34-35.16ZM821.86-35.16L823.62-35.16 823.62-13.92Q823.62-10.4 821.9-7.76 820.17-5.13 817.33-3.81 814.49-2.49 810.97-2.49 807.45-2.49 804.61-3.81 801.77-5.13 800.04-7.76 798.32-10.4 798.32-13.92L798.32-13.92 798.32-35.16 800.08-35.16 800.08-13.92Q800.08-11.62 800.94-9.77 801.79-7.91 803.28-6.71 804.77-5.52 806.73-4.88 808.7-4.25 810.97-4.25 813.24-4.25 815.21-4.88 817.17-5.52 818.66-6.71 820.15-7.91 821-9.77 821.86-11.62 821.86-13.92L821.86-13.92 821.86-35.16ZM860.36-35.16L860.36 0 858.6 0 858.6-35.16 860.36-35.16ZM856.84-35.16L856.84 0 855.08 0 855.08-35.16 856.84-35.16ZM853.33-35.16L853.33 0 851.57 0 851.57-35.16 853.33-35.16ZM863.87-13.21L863.87-8.79 880.69-8.79 880.69-7.03 863.87-7.03 863.87-5.27 880.69-5.27 880.69-3.52 863.87-3.52 863.87-1.76 880.69-1.76 880.69 0 862.12 0 862.12-35.16 880.69-35.16 880.69-33.4 863.87-33.4 863.87-31.64 880.69-31.64 880.69-29.88 863.87-29.88 863.87-28.13 880.69-28.13 880.69-26.37 863.87-26.37 863.87-22 879.72-22 879.72-20.24 863.87-20.24 863.87-18.48 879.72-18.48 879.72-16.72 863.87-16.72 863.87-14.97 879.72-14.97 879.72-13.21 863.87-13.21ZM898.2-15.04L898.2-16.8 908.79-16.8Q910.89-16.8 912.36-18.12 913.82-19.43 913.82-21.83L913.82-21.83Q913.82-23.58 912.3-24.98 910.77-26.37 908.79-26.37L908.79-26.37 893.7-26.37 893.7 0 891.95 0 891.95-28.13 908.79-28.13Q911.5-28.13 913.54-26.22 915.58-24.32 915.58-21.83L915.58-21.83Q915.58-18.73 913.6-16.88 911.62-15.04 908.79-15.04L908.79-15.04 898.2-15.04ZM898.2-11.52L898.2-13.28 908.79-13.28Q912.31-13.28 914.82-15.67 917.34-18.07 917.34-21.83L917.34-21.83Q917.34-25.02 914.77-27.45 912.21-29.88 908.79-29.88L908.79-29.88 890.19-29.88 890.19 0 888.43 0 888.43-31.64 908.79-31.64Q912.94-31.64 916.02-28.7 919.1-25.76 919.1-21.83L919.1-21.83Q919.1-17.43 916.06-14.48 913.02-11.52 908.79-11.52L908.79-11.52 898.2-11.52ZM898.2-8.01L898.2-9.77 908.79-9.77Q912.04-9.77 914.8-11.33 917.56-12.89 919.2-15.67 920.85-18.46 920.85-21.83L920.85-21.83Q920.85-24.88 919.22-27.55 917.58-30.22 914.79-31.81 911.99-33.4 908.79-33.4L908.79-33.4 886.67-33.4 886.67 0 884.92 0 884.92-35.16 908.79-35.16Q911.55-35.16 914.1-34.07 916.65-32.98 918.51-31.19 920.36-29.39 921.49-26.93 922.61-24.46 922.61-21.83L922.61-21.83Q922.61-17.55 920.66-14.37 918.7-11.18 915.41-9.52L915.41-9.52 919.1 0 917.22 0 913.72-8.81Q913.06-8.59 912.19-8.37L912.19-8.37 915.48 0 913.6 0 910.38-8.08Q909.62-8.01 908.79-8.01L908.79-8.01 911.89 0 910.04 0 906.96-8.01 905.37-8.01 908.33 0 906.47 0 903.49-8.01 898.2-8.01ZM897.22-22.85L897.22 0 895.46 0 895.46-24.61 908.79-24.61Q910.16-24.61 911.11-23.79 912.06-22.97 912.06-21.83L912.06-21.83Q912.06-18.55 908.79-18.55L908.79-18.55 898.2-18.55 898.2-20.31 908.79-20.31Q910.31-20.31 910.31-21.83L910.31-21.83Q910.31-22.24 909.85-22.55 909.4-22.85 908.79-22.85L908.79-22.85 897.22-22.85ZM937.04 0L937.04-35.16 938.79-35.16 938.79 0 937.04 0ZM933.52 0L933.52-35.16 935.28-35.16 935.28 0 933.52 0ZM930.01 0L930.01-35.16 931.76-35.16 931.76 0 930.01 0ZM926.49 0L926.49-35.16 928.25-35.16 928.25 0 926.49 0ZM971.12-35.16L971.12-14.18 969.36-17.38 969.36-35.16 971.12-35.16ZM974.63-35.16L974.63-8.11 972.87-11.08 972.87-35.16 974.63-35.16ZM950.41 0L950.41-20.97 952.17-17.77 952.17 0 950.41 0ZM946.9 0L946.9-27.29 948.66-24.07 948.66 0 946.9 0ZM967.87 0L947.51-35.16 949.56-35.16 969.92 0 967.87 0ZM971.97 0L951.66-35.16 953.73-35.16 974.07 0 971.97 0ZM976.07 0L955.78-35.16 957.84-35.16 976.39-3.05 976.39-35.16 978.15-35.16 978.15 0 976.07 0ZM963.74 0L945.14-32.13 945.14 0 943.38 0 943.38-35.16 945.48-35.16 965.77 0 963.74 0ZM1007.47-12.62L1007.47-17.82 1009.22-17.82 1009.22 0Q1005.32 1.76 1001.14 1.76L1001.14 1.76Q997.21 1.76 993.64 0.22 990.06-1.32 987.47-3.91 984.88-6.49 983.35-10.07 981.81-13.65 981.81-17.58 981.81-21.51 983.35-25.09 984.88-28.66 987.47-31.25 990.06-33.84 993.64-35.38 997.21-36.91 1001.14-36.91L1001.14-36.91Q1005.64-36.91 1009.59-34.97 1013.55-33.03 1016.26-29.64L1016.26-29.64 1014.84-28.59Q1012.37-31.64 1008.8-33.4 1005.22-35.16 1001.14-35.16L1001.14-35.16Q997.58-35.16 994.32-33.76 991.06-32.37 988.7-30.02 986.35-27.66 984.96-24.4 983.57-21.14 983.57-17.58 983.57-14.01 984.96-10.75 986.35-7.5 988.7-5.14 991.06-2.78 994.32-1.39 997.58 0 1001.14 0L1001.14 0Q1004.44 0 1007.47-1.17L1007.47-1.17 1007.47-2.98Q1004.41-1.76 1001.14-1.76L1001.14-1.76Q997.92-1.76 994.99-3.02 992.06-4.27 989.95-6.38 987.84-8.5 986.58-11.43 985.32-14.36 985.32-17.58 985.32-20.8 986.58-23.73 987.84-26.66 989.95-28.77 992.06-30.88 994.99-32.14 997.92-33.4 1001.14-33.4L1001.14-33.4Q1004.83-33.4 1008.06-31.81 1011.3-30.22 1013.52-27.44L1013.52-27.44 1012.15-26.34Q1010.18-28.81 1007.3-30.22 1004.41-31.64 1001.14-31.64L1001.14-31.64Q998.29-31.64 995.69-30.53 993.09-29.42 991.19-27.53 989.3-25.63 988.19-23.03 987.08-20.43 987.08-17.58 987.08-14.72 988.19-12.12 989.3-9.52 991.19-7.63 993.09-5.74 995.69-4.63 998.29-3.52 1001.14-3.52L1001.14-3.52Q1004.51-3.52 1007.47-4.88L1007.47-4.88 1007.47-6.69Q1004.51-5.27 1001.14-5.27L1001.14-5.27Q997.8-5.27 994.97-6.92 992.13-8.57 990.49-11.4 988.84-14.23 988.84-17.58 988.84-20.92 990.49-23.75 992.13-26.59 994.97-28.23 997.8-29.88 1001.14-29.88L1001.14-29.88Q1004-29.88 1006.53-28.65 1009.05-27.42 1010.76-25.24L1010.76-25.24 1009.37-24.17Q1007.91-26.03 1005.75-27.08 1003.58-28.13 1001.14-28.13L1001.14-28.13Q996.77-28.13 993.68-25.02 990.6-21.92 990.6-17.58 990.6-13.23 993.68-10.13 996.77-7.03 1001.14-7.03L1001.14-7.03Q1004.56-7.03 1007.47-8.69L1007.47-8.69 1007.47-10.47Q1004.61-8.79 1001.14-8.79L1001.14-8.79Q997.51-8.79 994.93-11.36 992.35-13.94 992.35-17.58 992.35-21.22 994.93-23.79 997.51-26.37 1001.14-26.37L1001.14-26.37Q1003.19-26.37 1005-25.48 1006.81-24.58 1008.03-23.05L1008.03-23.05 1006.61-21.97Q1004.49-24.61 1001.14-24.61L1001.14-24.61Q998.24-24.61 996.17-22.55 994.11-20.48 994.11-17.58 994.11-14.67 996.17-12.61 998.24-10.55 1001.14-10.55L1001.14-10.55Q1004.88-10.55 1007.47-12.62L1007.47-12.62ZM1018.01 0L1018.01-17.82 1019.77-17.82 1019.77 0 1018.01 0ZM1014.5 0L1014.5-17.82 1016.26-17.82 1016.26 0 1014.5 0ZM1010.98 0L1010.98-17.82 1012.74-17.82 1012.74 0 1010.98 0ZM1040.05 0L1040.05-40.43 1041.81-40.43 1041.81 0 1040.05 0ZM1036.54 0L1036.54-40.43 1038.3-40.43 1038.3 0 1036.54 0ZM1033.02 0L1033.02-40.43 1034.78-40.43 1034.78 0 1033.02 0ZM1029.51 0L1029.51-40.43 1031.27-40.43 1031.27 0 1029.51 0ZM1074.18-35.16L1074.18-14.18 1072.42-17.38 1072.42-35.16 1074.18-35.16ZM1077.7-35.16L1077.7-8.11 1075.94-11.08 1075.94-35.16 1077.7-35.16ZM1053.48 0L1053.48-20.97 1055.24-17.77 1055.24 0 1053.48 0ZM1049.96 0L1049.96-27.29 1051.72-24.07 1051.72 0 1049.96 0ZM1070.94 0L1050.57-35.16 1052.62-35.16 1072.99 0 1070.94 0ZM1075.04 0L1054.72-35.16 1056.8-35.16 1077.14 0 1075.04 0ZM1079.14 0L1058.85-35.16 1060.9-35.16 1079.46-3.05 1079.46-35.16 1081.21-35.16 1081.21 0 1079.14 0ZM1066.81 0L1048.21-32.13 1048.21 0 1046.45 0 1046.45-35.16 1048.55-35.16 1068.84 0 1066.81 0ZM1113.54-35.16L1113.54-14.18 1111.78-17.38 1111.78-35.16 1113.54-35.16ZM1117.05-35.16L1117.05-8.11 1115.29-11.08 1115.29-35.16 1117.05-35.16ZM1092.83 0L1092.83-20.97 1094.59-17.77 1094.59 0 1092.83 0ZM1089.32 0L1089.32-27.29 1091.07-24.07 1091.07 0 1089.32 0ZM1110.29 0L1089.93-35.16 1091.98-35.16 1112.34 0 1110.29 0ZM1114.39 0L1094.08-35.16 1096.15-35.16 1116.49 0 1114.39 0ZM1118.49 0L1098.2-35.16 1100.25-35.16 1118.81-3.05 1118.81-35.16 1120.57-35.16 1120.57 0 1118.49 0ZM1106.16 0L1087.56-32.13 1087.56 0 1085.8 0 1085.8-35.16 1087.9-35.16 1108.19 0 1106.16 0ZM1138.59-22.55Q1136.53-20.48 1136.53-17.58 1136.53-14.67 1138.59-12.61 1140.66-10.55 1143.56-10.55 1146.47-10.55 1148.53-12.61 1150.59-14.67 1150.59-17.58 1150.59-20.48 1148.53-22.55 1146.47-24.61 1143.56-24.61 1140.66-24.61 1138.59-22.55ZM1137.35-11.36Q1134.77-13.94 1134.77-17.58 1134.77-21.22 1137.35-23.79 1139.92-26.37 1143.56-26.37 1147.2-26.37 1149.78-23.79 1152.35-21.22 1152.35-17.58 1152.35-13.94 1149.78-11.36 1147.2-8.79 1143.56-8.79 1139.92-8.79 1137.35-11.36ZM1136.1-25.02Q1133.02-21.92 1133.02-17.58 1133.02-13.23 1136.1-10.13 1139.19-7.03 1143.56-7.03 1147.93-7.03 1151.02-10.13 1154.11-13.23 1154.11-17.58 1154.11-21.92 1151.02-25.02 1147.93-28.13 1143.56-28.13 1139.19-28.13 1136.1-25.02ZM1132.91-11.4Q1131.26-14.23 1131.26-17.58 1131.26-20.92 1132.91-23.75 1134.55-26.59 1137.39-28.23 1140.22-29.88 1143.56-29.88 1146.91-29.88 1149.74-28.23 1152.57-26.59 1154.22-23.75 1155.87-20.92 1155.87-17.58 1155.87-14.23 1154.22-11.4 1152.57-8.57 1149.74-6.92 1146.91-5.27 1143.56-5.27 1140.22-5.27 1137.39-6.92 1134.55-8.57 1132.91-11.4ZM1130.61-23.03Q1129.5-20.43 1129.5-17.58 1129.5-14.72 1130.61-12.12 1131.72-9.52 1133.61-7.63 1135.51-5.74 1138.11-4.63 1140.71-3.52 1143.56-3.52 1146.42-3.52 1149.02-4.63 1151.62-5.74 1153.51-7.63 1155.4-9.52 1156.51-12.12 1157.62-14.72 1157.62-17.58 1157.62-20.43 1156.51-23.03 1155.4-25.63 1153.51-27.53 1151.62-29.42 1149.02-30.53 1146.42-31.64 1143.56-31.64 1140.71-31.64 1138.11-30.53 1135.51-29.42 1133.61-27.53 1131.72-25.63 1130.61-23.03ZM1129-11.43Q1127.74-14.36 1127.74-17.58 1127.74-20.8 1129-23.73 1130.26-26.66 1132.37-28.77 1134.48-30.88 1137.41-32.14 1140.34-33.4 1143.56-33.4 1146.78-33.4 1149.71-32.14 1152.64-30.88 1154.76-28.77 1156.87-26.66 1158.13-23.73 1159.38-20.8 1159.38-17.58 1159.38-14.36 1158.13-11.43 1156.87-8.5 1154.76-6.38 1152.64-4.27 1149.71-3.02 1146.78-1.76 1143.56-1.76 1140.34-1.76 1137.41-3.02 1134.48-4.27 1132.37-6.38 1130.26-8.5 1129-11.43ZM1127.38-24.4Q1125.98-21.14 1125.98-17.58 1125.98-14.01 1127.38-10.75 1128.77-7.5 1131.12-5.14 1133.48-2.78 1136.74-1.39 1140 0 1143.56 0 1147.13 0 1150.39-1.39 1153.65-2.78 1156-5.14 1158.36-7.5 1159.75-10.75 1161.14-14.01 1161.14-17.58 1161.14-21.14 1159.75-24.4 1158.36-27.66 1156-30.02 1153.65-32.37 1150.39-33.76 1147.13-35.16 1143.56-35.16 1140-35.16 1136.74-33.76 1133.48-32.37 1131.12-30.02 1128.77-27.66 1127.38-24.4ZM1125.76-10.07Q1124.23-13.65 1124.23-17.58 1124.23-21.51 1125.76-25.09 1127.3-28.66 1129.89-31.25 1132.48-33.84 1136.06-35.38 1139.63-36.91 1143.56-36.91 1147.49-36.91 1151.07-35.38 1154.65-33.84 1157.23-31.25 1159.82-28.66 1161.36-25.09 1162.9-21.51 1162.9-17.58 1162.9-13.65 1161.36-10.07 1159.82-6.49 1157.23-3.91 1154.65-1.32 1151.07 0.22 1147.49 1.76 1143.56 1.76 1139.63 1.76 1136.06 0.22 1132.48-1.32 1129.89-3.91 1127.3-6.49 1125.76-10.07ZM1176.62 0L1162.7-35.16 1164.6-35.16 1177.57-2.37 1190.53-35.16 1192.41-35.16 1178.52 0 1176.62 0ZM1177.79-6.54L1166.48-35.16 1168.36-35.16 1178.79-8.79 1177.79-6.54ZM1179.74-11.18L1170.27-35.16 1172.17-35.16 1180.67-13.6 1179.74-11.18ZM1181.6-16.02L1174.05-35.16 1175.93-35.16 1182.52-18.48 1181.6-16.02ZM1187.97 0L1201.86-35.16 1203.76-35.16 1189.85 0 1187.97 0ZM1184.18 0L1198.1-35.16 1199.98-35.16 1186.06 0 1184.18 0ZM1180.4 0L1194.29-35.16 1196.2-35.16 1182.28 0 1180.4 0ZM1229.25 0L1229.25-17.33Q1229.25-20.46 1227.32-22.17 1225.39-23.88 1222.22-23.88L1222.22-23.88Q1219.53-23.88 1217.61-22.02 1215.68-20.17 1215.68-17.58L1215.68-17.58Q1215.68-16.11 1216.07-14.95 1216.46-13.79 1217.13-13.02 1217.8-12.26 1218.73-11.76 1219.66-11.25 1220.67-11.04 1221.68-10.82 1222.83-10.82L1222.83-10.82Q1225.61-10.82 1227.91-12.18L1227.91-12.18 1227.91-10.42Q1225.54-9.18 1222.81-9.18L1222.81-9.18Q1221.05-9.18 1219.5-9.66 1217.95-10.13 1216.68-11.1 1215.41-12.06 1214.66-13.73 1213.92-15.41 1213.92-17.58L1213.92-17.58Q1213.92-20.95 1216.29-23.29 1218.65-25.63 1222.22-25.63L1222.22-25.63Q1226.15-25.63 1228.58-23.43 1231.01-21.22 1231.01-17.33L1231.01-17.33 1231.01 0 1229.25 0ZM1234.52-17.33L1234.52-17.33 1234.52 0 1232.77 0 1232.77-17.33Q1232.77-21.95 1229.81-24.67 1226.86-27.39 1222.22-27.39L1222.22-27.39Q1217.92-27.39 1215.04-24.54 1212.16-21.68 1212.16-17.58L1212.16-17.58Q1212.16-15.09 1213.03-13.11 1213.89-11.13 1215.38-9.94 1216.87-8.74 1218.72-8.12 1220.56-7.5 1222.61-7.5L1222.61-7.5Q1225.39-7.5 1227.91-8.79L1227.91-8.79 1227.91-6.93Q1225.27-5.83 1222.59-5.83L1222.59-5.83Q1220.17-5.83 1218-6.58 1215.82-7.32 1214.11-8.75 1212.4-10.18 1211.4-12.46 1210.4-14.75 1210.4-17.58L1210.4-17.58Q1210.4-22.39 1213.81-25.77 1217.21-29.15 1222.22-29.15L1222.22-29.15Q1225.74-29.15 1228.52-27.72 1231.3-26.29 1232.91-23.58 1234.52-20.87 1234.52-17.33ZM1238.04-17.33L1238.04-17.33 1238.04 0 1236.28 0 1236.28-17.33Q1236.28-21.36 1234.44-24.48 1232.6-27.59 1229.4-29.25 1226.2-30.91 1222.22-30.91L1222.22-30.91Q1218.44-30.91 1215.31-29.11 1212.19-27.32 1210.42-24.27 1208.65-21.22 1208.65-17.58L1208.65-17.58Q1208.65-14.45 1209.79-11.88 1210.94-9.3 1212.88-7.64 1214.82-5.98 1217.3-5.07 1219.78-4.15 1222.49-4.15L1222.49-4.15Q1225.25-4.15 1227.91-5.3L1227.91-5.3 1227.91-3.52Q1225.12-2.47 1222.44-2.47L1222.44-2.47Q1218.22-2.47 1214.68-4.37 1211.14-6.27 1209.01-9.77 1206.89-13.26 1206.89-17.58L1206.89-17.58Q1206.89-20.65 1208.07-23.44 1209.26-26.22 1211.28-28.25 1213.31-30.27 1216.16-31.47 1219.02-32.67 1222.22-32.67L1222.22-32.67Q1226.69-32.67 1230.29-30.76 1233.89-28.86 1235.96-25.34 1238.04-21.83 1238.04-17.33ZM1241.56-17.33L1241.56-17.33 1241.56 0 1239.8 0 1239.8-17.33Q1239.8-22.31 1237.48-26.23 1235.16-30.15 1231.15-32.29 1227.15-34.42 1222.22-34.42L1222.22-34.42Q1217.48-34.42 1213.55-32.15 1209.62-29.88 1207.38-26.01 1205.13-22.14 1205.13-17.58L1205.13-17.58Q1205.13-14.58 1206.09-11.88 1207.06-9.18 1208.73-7.17 1210.4-5.15 1212.59-3.69 1214.77-2.22 1217.3-1.46 1219.83-0.71 1222.44-0.71L1222.44-0.71Q1225.32-0.71 1227.91-1.81L1227.91-1.81 1227.91 0Q1225.2 0.95 1222.34 0.95L1222.34 0.95Q1219.39 0.95 1216.59 0.12 1213.8-0.71 1211.42-2.33 1209.04-3.96 1207.23-6.16 1205.42-8.37 1204.4-11.33 1203.37-14.28 1203.37-17.58L1203.37-17.58Q1203.37-21.36 1204.8-24.79 1206.23-28.22 1208.71-30.73 1211.18-33.23 1214.71-34.7 1218.24-36.18 1222.22-36.18L1222.22-36.18Q1226.27-36.18 1229.84-34.81 1233.4-33.45 1235.99-31.02 1238.58-28.59 1240.07-25.05 1241.56-21.51 1241.56-17.33ZM1252.12 0L1252.12-25.42 1253.88-25.42 1253.88 0 1252.12 0ZM1271.46-33.4L1245.09-33.4 1245.09-35.16 1271.46-35.16 1271.46-33.4ZM1271.46-29.88L1245.09-29.88 1245.09-31.64 1271.46-31.64 1271.46-29.88ZM1271.46-26.37L1245.09-26.37 1245.09-28.13 1271.46-28.13 1271.46-26.37ZM1262.67 0L1262.67-25.42 1264.43-25.42 1264.43 0 1262.67 0ZM1259.16 0L1259.16-25.42 1260.91-25.42 1260.91 0 1259.16 0ZM1255.64 0L1255.64-25.42 1257.4-25.42 1257.4 0 1255.64 0ZM1285.86 0L1285.86-35.16 1287.62-35.16 1287.62 0 1285.86 0ZM1282.35 0L1282.35-35.16 1284.1-35.16 1284.1 0 1282.35 0ZM1278.83 0L1278.83-35.16 1280.59-35.16 1280.59 0 1278.83 0ZM1275.32 0L1275.32-35.16 1277.07-35.16 1277.07 0 1275.32 0ZM1305.65-22.55Q1303.58-20.48 1303.58-17.58 1303.58-14.67 1305.65-12.61 1307.71-10.55 1310.62-10.55 1313.52-10.55 1315.58-12.61 1317.65-14.67 1317.65-17.58 1317.65-20.48 1315.58-22.55 1313.52-24.61 1310.62-24.61 1307.71-24.61 1305.65-22.55ZM1304.4-11.36Q1301.83-13.94 1301.83-17.58 1301.83-21.22 1304.4-23.79 1306.98-26.37 1310.62-26.37 1314.25-26.37 1316.83-23.79 1319.4-21.22 1319.4-17.58 1319.4-13.94 1316.83-11.36 1314.25-8.79 1310.62-8.79 1306.98-8.79 1304.4-11.36ZM1303.16-25.02Q1300.07-21.92 1300.07-17.58 1300.07-13.23 1303.16-10.13 1306.25-7.03 1310.62-7.03 1314.99-7.03 1318.07-10.13 1321.16-13.23 1321.16-17.58 1321.16-21.92 1318.07-25.02 1314.99-28.13 1310.62-28.13 1306.25-28.13 1303.16-25.02ZM1299.96-11.4Q1298.31-14.23 1298.31-17.58 1298.31-20.92 1299.96-23.75 1301.61-26.59 1304.44-28.23 1307.27-29.88 1310.62-29.88 1313.96-29.88 1316.79-28.23 1319.62-26.59 1321.27-23.75 1322.92-20.92 1322.92-17.58 1322.92-14.23 1321.27-11.4 1319.62-8.57 1316.79-6.92 1313.96-5.27 1310.62-5.27 1307.27-5.27 1304.44-6.92 1301.61-8.57 1299.96-11.4ZM1297.66-23.03Q1296.55-20.43 1296.55-17.58 1296.55-14.72 1297.66-12.12 1298.77-9.52 1300.67-7.63 1302.56-5.74 1305.16-4.63 1307.76-3.52 1310.62-3.52 1313.47-3.52 1316.07-4.63 1318.67-5.74 1320.56-7.63 1322.46-9.52 1323.57-12.12 1324.68-14.72 1324.68-17.58 1324.68-20.43 1323.57-23.03 1322.46-25.63 1320.56-27.53 1318.67-29.42 1316.07-30.53 1313.47-31.64 1310.62-31.64 1307.76-31.64 1305.16-30.53 1302.56-29.42 1300.67-27.53 1298.77-25.63 1297.66-23.03ZM1296.05-11.43Q1294.79-14.36 1294.79-17.58 1294.79-20.8 1296.05-23.73 1297.31-26.66 1299.42-28.77 1301.53-30.88 1304.46-32.14 1307.39-33.4 1310.62-33.4 1313.84-33.4 1316.77-32.14 1319.7-30.88 1321.81-28.77 1323.92-26.66 1325.18-23.73 1326.44-20.8 1326.44-17.58 1326.44-14.36 1325.18-11.43 1323.92-8.5 1321.81-6.38 1319.7-4.27 1316.77-3.02 1313.84-1.76 1310.62-1.76 1307.39-1.76 1304.46-3.02 1301.53-4.27 1299.42-6.38 1297.31-8.5 1296.05-11.43ZM1294.43-24.4Q1293.04-21.14 1293.04-17.58 1293.04-14.01 1294.43-10.75 1295.82-7.5 1298.18-5.14 1300.53-2.78 1303.79-1.39 1307.05 0 1310.62 0 1314.18 0 1317.44-1.39 1320.7-2.78 1323.05-5.14 1325.41-7.5 1326.8-10.75 1328.19-14.01 1328.19-17.58 1328.19-21.14 1326.8-24.4 1325.41-27.66 1323.05-30.02 1320.7-32.37 1317.44-33.76 1314.18-35.16 1310.62-35.16 1307.05-35.16 1303.79-33.76 1300.53-32.37 1298.18-30.02 1295.82-27.66 1294.43-24.4ZM1292.82-10.07Q1291.28-13.65 1291.28-17.58 1291.28-21.51 1292.82-25.09 1294.36-28.66 1296.94-31.25 1299.53-33.84 1303.11-35.38 1306.68-36.91 1310.62-36.91 1314.55-36.91 1318.12-35.38 1321.7-33.84 1324.29-31.25 1326.88-28.66 1328.41-25.09 1329.95-21.51 1329.95-17.58 1329.95-13.65 1328.41-10.07 1326.88-6.49 1324.29-3.91 1321.7-1.32 1318.12 0.22 1314.55 1.76 1310.62 1.76 1306.68 1.76 1303.11 0.22 1299.53-1.32 1296.94-3.91 1294.36-6.49 1292.82-10.07ZM1361.61-35.16L1361.61-14.18 1359.86-17.38 1359.86-35.16 1361.61-35.16ZM1365.13-35.16L1365.13-8.11 1363.37-11.08 1363.37-35.16 1365.13-35.16ZM1340.91 0L1340.91-20.97 1342.67-17.77 1342.67 0 1340.91 0ZM1337.39 0L1337.39-27.29 1339.15-24.07 1339.15 0 1337.39 0ZM1358.37 0L1338.01-35.16 1340.06-35.16 1360.42 0 1358.37 0ZM1362.47 0L1342.16-35.16 1344.23-35.16 1364.57 0 1362.47 0ZM1366.57 0L1346.28-35.16 1348.33-35.16 1366.89-3.05 1366.89-35.16 1368.64-35.16 1368.64 0 1366.57 0ZM1354.24 0L1335.64-32.13 1335.64 0 1333.88 0 1333.88-35.16 1335.98-35.16 1356.27 0 1354.24 0ZM1381.73-7.03L1372.94-7.03 1372.94-8.79 1381.73-8.79 1381.73-7.03ZM1381.73-3.52L1372.94-3.52 1372.94-5.27 1381.73-5.27 1381.73-3.52ZM1381.73 0L1372.94 0 1372.94-1.76 1381.73-1.76 1381.73 0Z" opacity="1" transform="matrix(1,0,0,1,0,0)" fill="#ffd700" class="slogan-text-1" data-fill-palette-color="secondary" id="text-1"></path></svg></g></svg></g></svg></g></svg></g><g transform="matrix(1,0,0,1,253.79538909959024,0)"><svg viewBox="0 0 81.6534956955103 74.57797717733675" height="74.57797717733675" width="81.6534956955103"><g><svg xmlns="http://www.w3.org/2000/svg" xmlns:xlink="http://www.w3.org/1999/xlink" version="1.1" x="0" y="0" viewBox="12.899999999999999 33.300000000000004 486.9999999999999 444.8" style="enable-background:new 0 0 512 512;" xml:space="preserve" height="74.57797717733675" width="81.6534956955103" class="icon-icon-0" data-fill-palette-color="accent" id="icon-0"><g fill="#4169e1" data-fill-palette-color="accent"><g fill="#4169e1" data-fill-palette-color="accent"><g fill="#4169e1" data-fill-palette-color="accent"><g fill="#4169e1" data-fill-palette-color="accent"><g fill="#4169e1" data-fill-palette-color="accent"><path d="M59.7 478.1c-2.2 0-4-1.8-4-4V362.8c0-2.2 1.8-4 4-4 33.2 0 60.4 9.2 76.5 25.8 9.8 10.1 14.9 22.6 14.5 35.3C149.8 447.9 120.9 478.1 59.7 478.1zM63.7 366.8v103.2c53.1-1.2 78.2-26.7 79-50.4 0.4-10.6-3.9-20.8-12.2-29.4C116.5 375.7 92.9 367.5 63.7 366.8z" fill="#4169e1" data-fill-palette-color="accent"></path></g><g fill="#4169e1" data-fill-palette-color="accent"><path d="M414.1 193.4c-12 0-21.7-9.8-21.7-21.7 0-12 9.8-21.7 21.7-21.7 12 0 21.7 9.7 21.7 21.7C435.7 183.6 426 193.4 414.1 193.4zM414.1 157.9c-7.6 0-13.7 6.1-13.7 13.7 0 7.6 6.2 13.7 13.7 13.7 7.5 0 13.7-6.2 13.7-13.7C427.7 164.1 421.6 157.9 414.1 157.9z" fill="#4169e1" data-fill-palette-color="accent"></path></g><g fill="#4169e1" data-fill-palette-color="accent"><path d="M313.7 183.7c-12 0-21.7-9.7-21.7-21.7 0-12 9.7-21.7 21.7-21.7 1.7 0 3.3 0.2 4.7 0.5 9.9 2.2 17 11.1 17 21.2 0 2.1-0.3 4.3-0.9 6.4C331.6 177.5 323.2 183.7 313.7 183.7zM313.7 148.2c-7.6 0-13.7 6.2-13.7 13.7 0 7.5 6.2 13.7 13.7 13.7 6 0 11.3-3.9 13.1-9.6 0.4-1.3 0.6-2.7 0.6-4 0-6.4-4.5-12-10.8-13.4 0 0-0.1 0-0.1 0C315.7 148.3 314.8 148.2 313.7 148.2z" fill="#4169e1" data-fill-palette-color="accent"></path></g><g fill="#4169e1" data-fill-palette-color="accent"><path d="M226.7 183.8c-14.9 0-27-12.1-27-27 0-14.9 12.1-27 27-27 14.8 0 26.9 12.1 26.9 27C253.6 171.7 241.5 183.8 226.7 183.8zM226.7 137.9c-10.5 0-19 8.5-19 19 0 10.5 8.5 19 19 19 10.4 0 18.9-8.5 18.9-19C245.6 146.4 237.1 137.9 226.7 137.9z" fill="#4169e1" data-fill-palette-color="accent"></path></g><g fill="#4169e1" data-fill-palette-color="accent"><path d="M346.8 247.2c-14.9 0-27-12.1-27-27 0-14.9 12.1-27 27-27 14.8 0 26.9 12.1 26.9 27C373.7 235.1 361.6 247.2 346.8 247.2zM346.8 201.2c-10.5 0-19 8.5-19 19 0 10.5 8.5 19 19 19 10.4 0 18.9-8.5 18.9-19C365.7 209.7 357.2 201.2 346.8 201.2z" fill="#4169e1" data-fill-palette-color="accent"></path></g><g fill="#4169e1" data-fill-palette-color="accent"><path d="M149.2 222.4c-14.9 0-27-12.1-27-27s12.1-27 27-27c14.9 0 27 12.1 27 27S164 222.4 149.2 222.4zM149.2 176.4c-10.5 0-19 8.5-19 19s8.5 19 19 19c10.5 0 19-8.5 19-19S159.6 176.4 149.2 176.4z" fill="#4169e1" data-fill-palette-color="accent"></path></g><g fill="#4169e1" data-fill-palette-color="accent"><path d="M352.6 172.1c-0.1 0-0.1 0-0.2 0l-21.9-0.9c-1.2-0.1-2.4-0.7-3.1-1.7-0.7-1-0.9-2.3-0.6-3.5 0.4-1.4 0.6-2.8 0.6-4.1 0-6.4-4.5-12-10.8-13.4-1-0.2-2-0.9-2.5-1.8-0.5-0.8-0.7-1.8-0.5-2.8 0.2-32.4 26.7-58.8 59.1-58.8 4.4 0 8.9 0.5 13.2 1.5 17.7 4.1 32.8 16.3 40.4 32.8 0.3 0.6 0.4 1.2 0.4 1.9l-0.1 1.4c-0.1 1.1-0.6 2.2-1.4 2.9-0.9 0.7-2 1-3.1 0.9-0.1 0-0.4 0-0.7 0-28.4 0-54 17-65.1 43.2C355.6 171.2 354.2 172.1 352.6 172.1zM335.4 163.4L350 164c12.3-26.4 37.9-43.8 66.8-45.4-7.1-12.1-19-20.9-32.7-24.1-3.8-0.9-7.5-1.3-11.4-1.3-27.3 0-49.7 21.5-51 48.5 8.2 3.2 13.8 11.3 13.8 20.2C335.4 162.5 335.4 162.9 335.4 163.4z" fill="#4169e1" data-fill-palette-color="accent"></path></g><g fill="#4169e1" data-fill-palette-color="accent"><path d="M431.7 296H102.7c-35.2 0-63.7-28.6-63.7-63.8 0-7.3 1.3-14.8 3.9-21.8-5.5-9.1-8.4-19.5-8.4-30.3 0-25.2 15.6-47.3 39.2-55.7 0.7-19.5 8.9-36.9 23.1-49.3C111 62.8 130.6 56 152.1 56c7.2 0 14.3 1 21 2.9l0.4-1.1c0.2-0.6 0.5-1.2 1-1.6 14.7-14.2 34.1-22.1 54.7-22.1 20.4 0 40.1 8.1 54.7 22.3 11.7-6.6 25-10.1 38.5-10.1 27.8 0 53 14.3 67.4 38.1 0.6 0.9 0.7 2 0.4 3.1l-1.3 4.9c-0.6 2.1-2.7 3.3-4.8 2.9-3.8-0.9-7.5-1.3-11.4-1.3-28.2 0-51.1 23-51.1 51.2 0 0.3 0 0.6-0.1 0.9l-0.1 0.2c-0.3 1-0.9 1.9-1.8 2.5-0.9 0.6-2 0.7-3.1 0.4-0.8-0.2-1.7-0.3-2.8-0.3-7.6 0-13.7 6.2-13.7 13.7 0 7.5 6.2 13.7 13.7 13.7 6 0 11.3-3.9 13.1-9.7 0.5-1.7 2.1-2.9 4-2.8l19.2 0.8c12.9-27.8 40.6-45.5 71.3-45.5 0.4 0 1 0 1.5 0.1 42.5 0.7 77.1 36 77.1 78.6 0 9.4-1.6 18.6-4.9 27.3 0.3 2.2 0.4 4.5 0.4 6.9 0 16.9-6.6 33-18.7 45.1C464.7 289.3 448.7 296 431.7 296zM152.1 64c-41.5 0-70.5 26-70.5 63.3 0 1.8-1.1 3.4-2.8 3.9-21.7 6.6-36.3 26.3-36.3 49 0 9.8 2.8 19.4 8.2 27.6 0.7 1.1 0.8 2.5 0.4 3.7-2.6 6.5-4 13.7-4 20.7 0 30.8 25 55.8 55.7 55.8h329.1c14.8 0 28.8-5.8 39.4-16.4 10.6-10.6 16.4-24.6 16.4-39.4 0-2.7-0.2-5.2-0.5-7.5-0.2-1.1 0.1-2.1 0.7-3 0.1-0.2 0.2-0.3 0.4-0.4 2.6-7.5 3.9-15.3 3.9-23.3 0-38.4-31.2-70.1-69.5-70.6-0.2 0-0.3 0-0.5 0-0.1 0-0.4 0-0.7 0-28.4 0-54 17-65.1 43.2-0.7 1.5-2.2 2.5-3.8 2.4l-19.1-0.8c-3.6 7.5-11.1 12.3-19.6 12.3-12 0-21.7-9.7-21.7-21.7 0-12 9.7-21.7 21.7-21.7 2.1-30.7 27.8-55 59-55 3 0 6.1 0.2 9.1 0.7-13.1-20.4-35.1-32.4-59.4-32.4-12.7 0-25.1 3.4-35.9 9.8l-0.3 0.3c-0.8 0.8-1.8 1.2-2.8 1.2 0 0 0 0-0.1 0-1.1 0-2.1-0.5-2.9-1.3-13.3-14.1-32-22.2-51.3-22.2-18.2 0-35.3 6.8-48.4 19.1l-1.3 3.9c-0.3 1-1.1 1.8-2 2.3s-2.1 0.5-3.1 0.2C167.3 65.2 159.8 64 152.1 64zM346.8 247.9c-14.9 0-27-12.1-27-27 0-14.9 12.1-27 27-27 14.8 0 26.9 12.1 26.9 27C373.7 235.8 361.6 247.9 346.8 247.9zM346.8 201.9c-10.5 0-19 8.5-19 19 0 10.5 8.5 19 19 19 10.4 0 18.9-8.5 18.9-19C365.7 210.5 357.2 201.9 346.8 201.9zM149.2 223.2c-14.9 0-27-12.1-27-27s12.1-27 27-27c14.9 0 27 12.1 27 27S164 223.2 149.2 223.2zM149.2 177.2c-10.5 0-19 8.5-19 19s8.5 19 19 19c10.5 0 19-8.5 19-19S159.6 177.2 149.2 177.2zM414.1 194.1c-12 0-21.7-9.8-21.7-21.7 0-12 9.8-21.7 21.7-21.7 12 0 21.7 9.7 21.7 21.7C435.7 184.4 426 194.1 414.1 194.1zM414.1 158.7c-7.6 0-13.7 6.1-13.7 13.7 0 7.6 6.2 13.7 13.7 13.7 7.5 0 13.7-6.2 13.7-13.7C427.7 164.8 421.6 158.7 414.1 158.7zM226.7 184.6c-14.9 0-27-12.1-27-27 0-14.9 12.1-27 27-27 14.8 0 26.9 12.1 26.9 27C253.6 172.5 241.5 184.6 226.7 184.6zM226.7 138.7c-10.5 0-19 8.5-19 19 0 10.5 8.5 19 19 19 10.4 0 18.9-8.5 18.9-19C245.6 147.2 237.1 138.7 226.7 138.7z" fill="#4169e1" data-fill-palette-color="accent"></path></g></g><g fill="#4169e1" data-fill-palette-color="accent"><g fill="#4169e1" data-fill-palette-color="accent"><path d="M102.7 295.2c-35.2 0-63.7-28.6-63.7-63.8 0-7.3 1.3-14.8 3.9-21.8-5.5-9.1-8.4-19.5-8.4-30.3 0-26.2 16.9-49 42-56.6 5.7-1.7 11.5-2.5 17.3-2.5 29.4 0 54.6 21.9 58.6 50.8 0.3 2.2-1.2 4.2-3.4 4.5-2.2 0.3-4.2-1.2-4.5-3.4-3.5-25.1-25.3-43.9-50.7-43.9-5 0-10.1 0.7-15 2.2-21.7 6.6-36.3 26.3-36.3 49 0 9.8 2.8 19.4 8.2 27.6 0.7 1.1 0.8 2.5 0.4 3.7-2.6 6.6-4 13.7-4 20.7 0 30.8 25 55.8 55.7 55.8 2.2 0 4 1.8 4 4S104.9 295.2 102.7 295.2z" fill="#4169e1" data-fill-palette-color="accent"></path></g><g fill="#4169e1" data-fill-palette-color="accent"><path d="M431.7 295.2c-2.2 0-4-1.8-4-4s1.8-4 4-4c14.8 0 28.8-5.8 39.4-16.4 10.6-10.6 16.4-24.6 16.4-39.4 0-2.7-0.2-5.2-0.5-7.5-3.8-27.6-27.5-48.3-55.2-48.3-2.2 0-4-1.8-4-4s1.8-4 4-4c31.7 0 58.8 23.7 63.1 55.1 0.4 2.7 0.6 5.5 0.6 8.7 0 16.9-6.6 33-18.7 45.1C464.7 288.6 448.7 295.2 431.7 295.2z" fill="#4169e1" data-fill-palette-color="accent"></path></g><g fill="#4169e1" data-fill-palette-color="accent"><path d="M226.7 137.9c-2.2 0-4-1.8-4-4 0-30.5-19.4-57.4-48.4-67-7.1-2.4-14.6-3.6-22.3-3.6-41.5 0-70.5 26-70.5 63.3 0 2.2-1.8 4-4 4s-4-1.8-4-4c0-20.7 8.2-39.2 23.2-52.1C111 62 130.6 55.2 152.1 55.2c8.6 0 17 1.4 24.9 4.1 32.2 10.7 53.8 40.7 53.8 74.6C230.7 136.1 228.9 137.9 226.7 137.9z" fill="#4169e1" data-fill-palette-color="accent"></path></g><g fill="#4169e1" data-fill-palette-color="accent"><path d="M303.7 116c-2.2 0-4-1.8-4-4 0-18.1-6.9-35.3-19.3-48.4-13.3-14.1-32-22.2-51.3-22.2-18.4 0-35.9 7-49 19.7-0.4 0.4-0.8 0.8-1.2 1.2-0.4 0.5-0.9 0.9-1.3 1.4-1.5 1.6-4 1.7-5.7 0.2-1.6-1.5-1.7-4-0.2-5.7 0.5-0.5 0.9-1 1.4-1.5 0.4-0.4 0.8-0.8 1.2-1.2 0 0 0.1-0.1 0.1-0.1 14.7-14.2 34.1-22.1 54.7-22.1 21.5 0 42.4 9 57.1 24.7 13.8 14.6 21.5 33.8 21.5 53.9C307.7 114.2 305.9 116 303.7 116z" fill="#4169e1" data-fill-palette-color="accent"></path></g><g fill="#4169e1" data-fill-palette-color="accent"><path d="M388.7 94.1c-1.4 0-2.8-0.8-3.5-2.1-0.8-1.5-1.5-2.9-2.3-4.2-13-21.5-35.6-34.3-60.6-34.3-12.8 0-25.4 3.5-36.3 10.1-1.9 1.1-4.4 0.5-5.5-1.4s-0.5-4.3 1.4-5.5c12.1-7.3 26.1-11.2 40.4-11.2 27.8 0 53 14.3 67.4 38.1 0.9 1.5 1.8 3.1 2.6 4.6 1 2 0.3 4.4-1.7 5.4C390 94 389.4 94.1 388.7 94.1z" fill="#4169e1" data-fill-palette-color="accent"></path></g><g fill="#4169e1" data-fill-palette-color="accent"><path d="M491.3 227.2c-0.5 0-0.9-0.1-1.4-0.3-2.1-0.8-3.1-3.1-2.4-5.1 2.9-7.9 4.4-16.2 4.4-24.6 0-38.4-31.2-70.1-69.5-70.6-0.2 0-0.3 0-0.5 0-0.1 0-0.4 0-0.7 0-28.4 0-54 17-65.1 43.2-3.7 8.7-5.5 18-5.5 27.5 0 2.2-1.8 4-4 4s-4-1.8-4-4c0-10.6 2.1-20.9 6.1-30.6 12.4-29.2 40.8-48.1 72.5-48.1 0.4 0 1 0 1.5 0.1 42.5 0.7 77.1 36 77.1 78.6 0 9.4-1.7 18.6-4.9 27.4C494.5 226.2 492.9 227.2 491.3 227.2z" fill="#4169e1" data-fill-palette-color="accent"></path></g><g fill="#4169e1" data-fill-palette-color="accent"><path d="M317.5 148.4c-2.2 0-4-1.8-4-4 0-32.6 26.5-59.2 59.1-59.2 4.4 0 8.9 0.5 13.2 1.5 17.7 4.1 32.8 16.3 40.4 32.8 0.9 2 0.1 4.4-2 5.3-2 0.9-4.4 0.1-5.3-2-6.6-14.2-19.6-24.8-35-28.3-3.8-0.9-7.5-1.3-11.4-1.3-28.2 0-51.1 23-51.1 51.2C321.5 146.6 319.7 148.4 317.5 148.4z" fill="#4169e1" data-fill-palette-color="accent"></path></g><g fill="#4169e1" data-fill-palette-color="accent"><path d="M436.9 295.2H104c-2.2 0-4-1.8-4-4s1.8-4 4-4h332.9c2.2 0 4 1.8 4 4S439.1 295.2 436.9 295.2z" fill="#4169e1" data-fill-palette-color="accent"></path></g><g fill="#4169e1" data-fill-palette-color="accent"><path d="M149.2 222.4c-14.9 0-27-12.1-27-27s12.1-27 27-27c14.9 0 27 12.1 27 27S164 222.4 149.2 222.4zM149.2 176.4c-10.5 0-19 8.5-19 19s8.5 19 19 19c10.5 0 19-8.5 19-19S159.6 176.4 149.2 176.4z" fill="#4169e1" data-fill-palette-color="accent"></path></g><g fill="#4169e1" data-fill-palette-color="accent"><path d="M226.7 183.8c-14.9 0-27-12.1-27-27 0-14.9 12.1-27 27-27 14.8 0 26.9 12.1 26.9 27C253.6 171.7 241.5 183.8 226.7 183.8zM226.7 137.9c-10.5 0-19 8.5-19 19 0 10.5 8.5 19 19 19 10.4 0 18.9-8.5 18.9-19C245.6 146.4 237.1 137.9 226.7 137.9z" fill="#4169e1" data-fill-palette-color="accent"></path></g><g fill="#4169e1" data-fill-palette-color="accent"><path d="M346.8 247.2c-14.9 0-27-12.1-27-27 0-14.9 12.1-27 27-27 14.8 0 26.9 12.1 26.9 27C373.7 235.1 361.6 247.2 346.8 247.2zM346.8 201.2c-10.5 0-19 8.5-19 19 0 10.5 8.5 19 19 19 10.4 0 18.9-8.5 18.9-19C365.7 209.7 357.2 201.2 346.8 201.2z" fill="#4169e1" data-fill-palette-color="accent"></path></g><g fill="#4169e1" data-fill-palette-color="accent"><path d="M313.7 183.7c-12 0-21.7-9.7-21.7-21.7 0-12 9.7-21.7 21.7-21.7 1.7 0 3.3 0.2 4.7 0.5 9.9 2.2 17 11.1 17 21.2 0 2.1-0.3 4.3-0.9 6.4C331.6 177.5 323.2 183.7 313.7 183.7zM313.7 148.2c-7.6 0-13.7 6.2-13.7 13.7 0 7.5 6.2 13.7 13.7 13.7 6 0 11.3-3.9 13.1-9.6 0.4-1.3 0.6-2.7 0.6-4 0-6.4-4.5-12-10.8-13.4 0 0-0.1 0-0.1 0C315.7 148.3 314.8 148.2 313.7 148.2z" fill="#4169e1" data-fill-palette-color="accent"></path></g><g fill="#4169e1" data-fill-palette-color="accent"><path d="M414.1 193.4c-12 0-21.7-9.8-21.7-21.7 0-12 9.8-21.7 21.7-21.7 12 0 21.7 9.7 21.7 21.7C435.7 183.6 426 193.4 414.1 193.4zM414.1 157.9c-7.6 0-13.7 6.1-13.7 13.7 0 7.6 6.2 13.7 13.7 13.7 7.5 0 13.7-6.2 13.7-13.7C427.7 164.1 421.6 157.9 414.1 157.9z" fill="#4169e1" data-fill-palette-color="accent"></path></g><g fill="#4169e1" data-fill-palette-color="accent"><path d="M392.8 423.7H146.7c-2.2 0-4-1.8-4-4s1.8-4 4-4h246.1c18 0 32.7-14.7 32.7-32.7s-14.7-32.7-32.7-32.7H270.5c-2.2 0-4-1.8-4-4s1.8-4 4-4h122.3c22.4 0 40.7 18.3 40.7 40.7C433.5 405.5 415.2 423.7 392.8 423.7z" fill="#4169e1" data-fill-palette-color="accent"></path></g><g fill="#4169e1" data-fill-palette-color="accent"><path d="M270.5 350.4c-2.2 0-4-1.8-4-4v-55.1c0-2.2 1.8-4 4-4s4 1.8 4 4v55.1C274.5 348.6 272.7 350.4 270.5 350.4z" fill="#4169e1" data-fill-palette-color="accent"></path></g><g fill="#4169e1" data-fill-palette-color="accent"><path d="M59.7 478.1c-2.2 0-4-1.8-4-4V362.8c0-2.2 1.8-4 4-4 33.2 0 60.4 9.2 76.5 25.8 9.8 10.1 14.9 22.6 14.5 35.3C149.8 447.9 120.9 478.1 59.7 478.1zM63.7 366.8v103.2c53.1-1.2 78.2-26.7 79-50.4 0.4-10.6-3.9-20.8-12.2-29.4C116.5 375.7 92.9 367.5 63.7 366.8z" fill="#4169e1" data-fill-palette-color="accent"></path></g><g fill="#4169e1" data-fill-palette-color="accent"><path d="M59.7 397.1H16.9c-2.2 0-4-1.8-4-4s1.8-4 4-4h42.8c2.2 0 4 1.8 4 4S61.9 397.1 59.7 397.1z" fill="#4169e1" data-fill-palette-color="accent"></path></g><g fill="#4169e1" data-fill-palette-color="accent"><path d="M59.7 447.8H16.9c-2.2 0-4-1.8-4-4s1.8-4 4-4h42.8c2.2 0 4 1.8 4 4S61.9 447.8 59.7 447.8z" fill="#4169e1" data-fill-palette-color="accent"></path></g><g fill="#4169e1" data-fill-palette-color="accent"><path d="M87.6 436.4c-2.2 0-4-1.8-4-4v-32.2c0-2.2 1.8-4 4-4s4 1.8 4 4v32.2C91.6 434.6 89.8 436.4 87.6 436.4z" fill="#4169e1" data-fill-palette-color="accent"></path></g><g fill="#4169e1" data-fill-palette-color="accent"><path d="M110.6 429.8c-2.2 0-4-1.8-4-4v-19c0-2.2 1.8-4 4-4s4 1.8 4 4v19C114.6 428 112.8 429.8 110.6 429.8z" fill="#4169e1" data-fill-palette-color="accent"></path></g></g></g></g></g></svg></g></svg></g></svg></g></svg></g><path d="M198.511 90.429L198.511 26.097 393.517 26.097 393.517 221.103 198.511 221.103 198.511 156.771 201.118 156.771 201.118 218.496 390.91 218.496 390.91 28.704 201.118 28.704 201.118 90.429Z" fill="#4169e1" stroke="transparent" data-fill-palette-color="tertiary"></path></svg></g><defs></defs></svg><rect width="395.52" height="247.2" fill="none" stroke="none" visibility="hidden"></rect></g></svg></g></svg>